<svg width="180" height="48" viewBox="0 0 180 48" fill="none" xmlns="http://www.w3.org/2000/svg">
<path fill-rule="evenodd" clip-rule="evenodd" d="M35.659 0.752613C35.8224 0.418119 36.394 0 36.394 0H46.0302C55.2576 0 55.7133 0 55.9039 0.224793C55.9138 0.236471 55.9229 0.248757 55.9326 0.261681L55.9326 0.261719L55.9327 0.261832L55.9328 0.261899L55.9328 0.261983C55.9495 0.284214 55.9675 0.308331 55.9931 0.334495C56.0257 0.401393 56.0845 0.468291 56.1433 0.53519C56.2315 0.635539 56.3197 0.735888 56.3197 0.836237L56.483 1.08711V4.34843V7.86063C56.4014 8.1115 56.1564 8.52962 55.9114 8.69686L55.897 8.70793C55.586 8.94773 55.586 8.94774 50.2767 8.94774H45.2952V39.1359H50.3583L55.4214 39.2195H55.6664C55.9931 39.3868 56.3197 39.7213 56.4014 40.0557V43.6516C56.4014 46.162 56.3476 46.8007 56.3273 47.0417L56.3273 47.0417L56.3273 47.0422C56.3226 47.0979 56.3197 47.1323 56.3197 47.1638C56.238 47.4146 55.6664 48 55.6664 48H45.8669L36.3123 47.9164H36.149C35.904 47.7491 35.4957 47.331 35.4957 47.0801V23.9164V1.00348L35.659 0.752613ZM75.1843 0.752613C75.3476 0.418119 75.9193 0 75.9193 0H85.5555C94.7655 0 95.2265 0 95.4853 0.228806C95.4989 0.240861 95.512 0.253552 95.5257 0.26691C95.5472 0.287766 95.5704 0.310252 95.6 0.334495C95.6816 0.501742 95.9266 0.836237 95.9266 0.836237L96.09 1.08711V24C96.09 46.4112 96.09 46.9129 96.0083 47.1638C95.9266 47.4146 95.6 47.7491 95.355 47.9164L95.1917 48H85.6371L76.0826 47.9164H75.8376C75.5926 47.7491 75.1843 47.331 75.1026 47.0801V43.4843C75.1026 42.8524 75.1003 42.3337 75.0984 41.906V41.9059V41.9058V41.9057V41.9056V41.9055V41.9054V41.9053V41.9052V41.9051C75.0913 40.2935 75.0899 39.9746 75.2392 39.7611C75.276 39.7085 75.3219 39.6623 75.3791 39.6048L75.3792 39.6047L75.3794 39.6045L75.404 39.5798L75.4293 39.554C75.5926 39.4704 75.8376 39.1359 75.8376 39.1359H76.0009H81.1457H86.2904V8.86411H81.309C76.1571 8.86411 76.0055 8.78533 75.7024 8.62778L75.6743 8.61324C75.4293 8.44599 75.1843 8.19512 75.1026 7.94425L75.0965 7.92549C75.0926 7.91334 75.0889 7.9016 75.0854 7.8898C75.021 7.67404 75.021 7.43905 75.021 4.34843V1.00348L75.1843 0.752613ZM1.93271 9.78408L0.871094 10.1186V20.4043V30.69L1.60606 31.0245C2.74934 31.6099 3.97428 31.9444 5.19922 32.1116C5.71827 32.1707 6.60388 32.1463 7.30954 32.1269L7.30983 32.1269C7.60326 32.1188 7.86555 32.1116 8.05741 32.1116C10.5073 31.6099 12.3855 30.2719 13.3655 28.2649C14.5088 25.9235 14.3454 22.5785 13.0388 20.3207C12.3855 19.1499 11.4872 18.3137 10.2623 17.7283C9.11903 17.143 8.13907 16.9757 6.75081 17.0593C5.36254 17.0593 4.46425 17.3938 3.40264 18.0628L2.99432 18.3137V13.8816V9.44958C2.99432 9.44958 2.50435 9.61683 1.93271 9.78408ZM8.38406 19.1499C9.44568 19.4844 10.4256 20.1534 10.9973 21.0733C11.6506 22.0768 11.8956 23.1639 11.8956 24.6691C11.8956 26.4252 11.4872 27.6796 10.589 28.5994C10.0173 29.1848 9.44568 29.5193 8.54739 29.8538C7.15912 30.3555 4.87257 30.1883 3.40264 29.6029L3.07599 29.4356V24.92V20.4043L3.40264 20.1534C3.97428 19.6517 4.7909 19.3172 5.60753 19.1499C6.26083 18.9827 6.42416 18.9827 7.24078 19.0663C7.81242 19.0663 8.05741 19.0663 8.38406 19.1499ZM153.662 18.8155C153.662 18.6482 153.988 18.2301 155.867 16.0559L156.03 16.2231C157.745 14.2162 158.316 13.6308 158.316 13.6308H158.398V17.2266H162.971V19.0663H158.398V23.4984V28.2649C158.561 29.1012 158.888 29.2684 159.95 29.2684C160.685 29.2684 161.501 29.1012 162.318 28.7667C162.645 28.5994 162.971 28.5158 162.971 28.5158V29.4357V30.5228H162.726C161.501 31.0245 160.44 31.2754 159.296 31.2754C158.235 31.2754 157.5 31.0245 157.01 30.5228C156.602 30.1047 156.438 29.7702 156.275 29.1848C156.03 28.5158 156.03 28.0977 156.03 23.4148V18.9827H153.662V18.8155ZM49.542 16.0557C49.542 16.0557 49.3786 16.1393 49.297 16.2229L49.1336 16.3901V18.3135C49.1336 20.1532 49.1336 20.2368 49.2153 20.3205L49.2396 20.3455C49.2726 20.3798 49.3007 20.4088 49.3321 20.4335C49.5083 20.5713 49.7923 20.5713 51.6652 20.5713H53.7068V27.0104H51.5835H49.4603L49.297 27.1776L49.1336 27.3449V29.2682C49.1336 31.1079 49.1336 31.1915 49.2153 31.2752C49.2232 31.2832 49.2303 31.2911 49.237 31.2986L49.2534 31.3177L49.2626 31.3285C49.2686 31.3354 49.2745 31.3421 49.2807 31.3485C49.4504 31.526 49.8058 31.526 56.6466 31.526C63.3798 31.526 63.8929 31.526 64.0276 31.3003C64.0387 31.2817 64.0472 31.2615 64.0564 31.2397C64.0629 31.2245 64.0697 31.2084 64.0779 31.1915C64.1596 31.0243 64.1596 30.857 64.0779 29.1846C64.0779 27.5121 64.0779 27.3449 63.9963 27.2612C63.8329 27.0104 63.7513 27.0104 61.5464 27.0104H59.5048V20.5713H61.5464C63.3929 20.5713 63.7482 20.5713 63.9026 20.3952C63.9394 20.3532 63.9648 20.3012 63.9963 20.2368C64.0779 20.0696 64.0779 19.9023 63.9963 18.2299C63.9963 16.5574 63.9963 16.3901 63.9146 16.3065L63.9063 16.2933L63.8992 16.2811L63.8931 16.2704C63.8863 16.2583 63.8798 16.2469 63.8725 16.2361C63.7488 16.0557 63.3617 16.0557 56.4833 16.0557H49.542ZM67.3446 16.1393C67.3446 16.1393 67.3118 16.0973 67.2669 16.2984L67.3446 16.1393ZM67.2654 16.3053L67.2629 16.3066L67.2669 16.2984L67.2654 16.3053ZM67.2654 16.3053C67.4271 16.223 67.5173 16.2229 69.3862 16.2229C71.5094 16.2229 71.591 16.2229 71.836 16.4738C71.9177 16.5574 73.061 18.1463 74.3676 19.986L76.8175 23.331V19.9024C76.8175 16.5574 76.8175 16.4738 76.8991 16.3902C76.9384 16.35 76.9714 16.3162 77.0085 16.2878C77.2029 16.1393 77.5107 16.1393 79.4307 16.1393C81.4722 16.1393 81.5539 16.1393 81.7172 16.2229C81.7392 16.2342 81.7597 16.242 81.7788 16.2494C81.7978 16.2566 81.8154 16.2633 81.8317 16.2723C82.0439 16.3894 82.0439 16.8912 82.0439 23.9163V23.9183C82.0439 31.108 82.0439 31.2752 81.9622 31.4425L81.9371 31.477C81.8965 31.5332 81.8635 31.5788 81.8227 31.6159C81.6456 31.777 81.3221 31.777 79.594 31.777L77.6341 31.6097H77.3891C77.2258 31.5261 76.6541 30.8571 74.6942 28.2648L72.2444 25.0871V28.1811C72.1665 31.4479 72.1629 31.4502 71.9508 31.5878C71.9403 31.5947 71.9293 31.6018 71.9177 31.6097C71.836 31.6933 71.6727 31.6933 69.6311 31.6933C67.2629 31.6933 67.2629 31.6933 67.0996 31.3588C67.0179 31.1916 67.0179 31.0244 67.0179 23.8347V23.8327C67.0179 18.3221 67.1687 16.7481 67.2654 16.3053ZM107.277 16.5575C106.297 16.6411 105.236 16.892 104.337 17.3937C102.949 18.0627 101.724 19.3171 101.153 20.655C100.581 21.9094 100.336 23.4146 100.499 25.0035C100.826 28.5157 103.276 31.0244 106.869 31.5261C107.522 31.6097 108.91 31.6097 109.645 31.5261C110.124 31.5261 110.471 31.4365 110.911 31.3228C111.072 31.2812 111.245 31.2364 111.442 31.1916L111.932 31.0244V29.9373V28.8502C111.932 28.8502 111.687 28.8502 111.442 29.0174C110.87 29.2683 109.972 29.4355 109.237 29.5191C108.421 29.6028 107.277 29.5191 106.624 29.4355C106.052 29.2683 105.562 29.101 105.072 28.7665C104.501 28.432 104.256 28.1812 103.847 27.6794C103.031 26.6759 102.622 25.5052 102.622 24.0836C102.622 21.4913 104.092 19.4843 106.542 18.8153C107.114 18.6481 107.114 18.6481 108.012 18.6481C108.747 18.6481 109.074 18.6481 109.482 18.7317C109.629 18.7651 109.779 18.7986 109.93 18.832C110.531 18.9658 111.132 19.0996 111.524 19.2334L111.85 19.4007V18.3136V17.2265L111.442 17.0592C110.952 16.892 110.054 16.7247 109.482 16.6411C109.278 16.6411 109.025 16.6329 108.757 16.6242C108.169 16.6051 107.507 16.5836 107.114 16.6411L107.277 16.5575ZM141.576 18.3973C142.556 17.3938 143.944 16.7248 145.333 16.5576C145.741 16.3904 146.721 16.474 147.211 16.5576C149.743 17.143 151.621 19.2336 152.111 22.0768C152.111 22.3383 152.119 22.6571 152.127 22.9947V22.9949V22.9951V22.9953L152.127 22.9977C152.146 23.739 152.167 24.5707 152.111 25.0872C151.947 26.4252 151.457 27.6796 150.722 28.683C150.314 29.2684 149.661 29.9374 149.171 30.2719C148.436 30.8573 147.538 31.2754 146.639 31.4426C145.659 31.6935 144.108 31.6099 142.883 31.2754C142.556 31.1918 141.658 30.7736 141.413 30.6064C141.331 30.5228 141.25 30.5228 141.25 30.5228V33.7005V36.8782H139.045V17.0593H141.25V18.7318L141.576 18.3973ZM148.436 19.6517C148.028 19.2336 147.211 18.8154 146.639 18.7318L146.558 18.6482C146.409 18.6482 146.216 18.6405 146.005 18.6322C145.519 18.6129 144.939 18.5899 144.598 18.6482C144.176 18.7201 143.876 18.8539 143.436 19.0496L143.349 19.0883L143.271 19.1227L143.209 19.1499C142.556 19.4008 142.066 19.8189 141.576 20.3207L141.25 20.6552V28.4322H141.413C141.821 28.7667 142.475 29.1012 143.128 29.2684C143.944 29.6029 144.271 29.6029 145.169 29.6029C145.904 29.6029 146.068 29.6029 146.394 29.5193C147.211 29.2684 147.864 28.9339 148.436 28.3485C149.171 27.5959 149.661 26.6761 149.906 25.3381C149.987 24.7527 149.987 23.1639 149.906 22.5785C149.661 21.3242 149.171 20.3207 148.436 19.6517ZM171.302 16.5575C171.302 16.5575 170.567 16.6411 170.322 16.7247C166.728 17.561 164.524 20.5714 164.769 24.5017C164.85 26.5087 165.503 28.0139 166.647 29.2683C167.627 30.2718 168.688 30.8571 170.077 31.2752C170.893 31.5261 171.465 31.5261 172.445 31.5261C173.67 31.5261 174.568 31.2752 175.63 30.7735C177.1 30.0209 178.08 29.101 178.815 27.5958C179.141 26.9268 179.305 26.2578 179.468 25.5052C179.549 24.8362 179.549 23.331 179.468 22.5784C179.223 20.9895 178.57 19.6515 177.508 18.6481C176.283 17.3937 174.731 16.7247 172.853 16.5575H171.302ZM173.261 18.5644C174.65 18.8153 175.711 19.6515 176.446 20.7387C177.1 21.7421 177.345 22.662 177.345 24.0836C177.345 25.0035 177.345 25.338 177.1 26.0906C176.365 28.432 174.323 29.8536 171.873 29.6864C169.342 29.5191 167.463 27.8467 167.055 25.2543C166.973 24.5853 166.973 23.4146 167.055 22.8292C167.137 22.3275 167.382 21.6585 167.545 21.2404C168.28 19.8188 169.587 18.8153 171.138 18.5644C171.71 18.4808 172.771 18.4808 173.261 18.5644ZM117.404 20.0696C118.384 17.8953 119.609 17.0591 122.14 16.641L122.222 16.7246H122.467H122.63V19.2333H122.222C120.67 19.3169 119.69 19.7351 118.792 20.6549C118.139 21.3239 117.812 21.9093 117.485 22.9964C117.159 23.9162 117.159 24.0835 117.159 27.7629V31.1079H116.097H115.035V17.1427H116.097H117.159V18.8988V20.6549L117.404 20.0696ZM22.7566 16.9758H22.2666C21.0416 17.143 19.8984 17.6448 19.0001 18.3137C18.5101 18.6482 17.7751 19.4845 17.4485 19.9862C16.9585 20.8225 16.6319 21.5751 16.3869 22.6622C16.3052 23.2475 16.3052 23.3312 16.3052 24.4183C16.3052 25.6726 16.3052 26.0071 16.5502 26.8434C17.2852 29.7702 19.4901 31.6935 22.6749 32.1117H25.2881C26.3497 32.028 27.8196 31.6099 28.8813 31.1918H29.1263V29.9374V28.8503L28.5546 29.1848C27.0847 29.9374 25.3698 30.2719 23.6549 30.1883C22.9199 30.1883 22.5116 30.1047 21.8583 29.8538C20.3067 29.2684 19.1634 28.0977 18.7551 26.3416C18.7224 26.1409 18.6898 25.9135 18.6571 25.686L18.6571 25.6859C18.6081 25.3447 18.5591 25.0036 18.5101 24.7528V24.5855H30.2695V24.251C30.2695 23.7493 30.1879 22.8294 30.0245 22.2441C29.2896 19.3172 27.3297 17.3103 24.6348 16.8921H22.8382L22.7566 16.9758ZM24.3898 18.8991C25.2881 19.0664 26.1047 19.4009 26.6764 19.9862C27.3297 20.6552 27.8196 21.6587 27.9013 22.6622V22.9967H23.2465H18.5101C18.5101 22.8294 18.6734 22.1604 18.8368 21.8259C19.1634 21.0733 19.735 20.3207 20.3883 19.9026C21.45 19.15 23.0015 18.8155 24.3082 18.9827L24.3898 18.8991ZM123.271 17.3099C123.226 17.2006 123.202 17.1427 123.202 17.1427V17.3099H123.271ZM126.06 24.0835C124.718 20.8282 123.559 18.011 123.271 17.3099H124.345H125.489L127.694 22.7455C128.919 25.7559 129.98 28.2646 129.98 28.2646C129.991 28.276 129.998 28.2903 130.007 28.2922C130.066 28.3044 130.23 27.8072 132.348 22.7455C132.624 22.0682 132.9 21.3814 133.153 20.7494C133.651 19.5085 134.064 18.4786 134.227 18.1462L134.635 17.2263H135.697H136.758C136.706 17.2263 135.956 19.0294 134.827 21.7459C134.185 23.2883 133.422 25.1253 132.593 27.0939L128.51 36.8779H127.449H126.387C126.417 36.8167 126.699 36.1504 127.055 35.3056C127.674 33.8425 128.518 31.844 128.674 31.526L128.919 30.9406L126.06 24.0835Z" fill="#FAFAFA"/>
</svg>
