<svg width="206" height="40" viewBox="0 0 206 40" fill="none" xmlns="http://www.w3.org/2000/svg">
<g clip-path="url(#clip0_277_2157)">
<path d="M18.6816 20.0019C18.6816 21.0923 19.5335 21.9441 20.6239 21.9441C21.7143 21.9441 22.5662 21.0923 22.5662 20.0019C22.5662 18.9115 21.7143 18.0596 20.6239 18.0596C19.5335 18.0936 18.6816 18.9455 18.6816 20.0019ZM34.9695 18.0936C33.8791 18.0936 33.0272 18.9455 33.0272 20.0359C33.0272 21.1263 33.8791 21.9782 34.9695 21.9782C36.0599 21.9782 36.9118 21.1263 36.9118 20.0359C36.9118 18.9455 36.0599 18.0936 34.9695 18.0936ZM34.9695 32.6778C33.8791 32.6778 33.0272 33.5297 33.0272 34.6201C33.0272 35.7105 33.8791 36.5623 34.9695 36.5623C36.0599 36.5623 36.9118 35.7105 36.9118 34.6201C36.9118 33.5297 36.0599 32.6778 34.9695 32.6778Z" fill="#F3BB2D"/>
<path d="M39.092 2.04446C37.1498 -0.374865 33.6741 -0.477086 31.6296 1.43112L31.3911 1.66965L30.914 2.04446C28.9718 3.61192 26.0754 3.47563 24.2694 1.66965V1.53334C23.656 0.919988 22.8382 0.442939 21.9864 0.204413C21.8501 0.204413 21.6115 0.0681152 21.5093 0.0681152H19.567C19.4307 0.0681152 19.3285 0.0681132 19.1922 0.204413H18.9537C18.8174 0.204413 18.7152 0.340712 18.5789 0.340712C18.5789 0.340712 18.4426 0.34072 18.4426 0.47702C18.3063 0.47702 18.204 0.613318 18.0677 0.613318C18.0677 0.613318 17.9314 0.613316 17.9314 0.749617C17.7951 0.885917 17.6929 0.885921 17.5566 0.988146C17.5566 0.988146 17.4203 0.988144 17.4203 1.12444C17.284 1.26074 17.1818 1.26074 17.0455 1.36296L16.9092 1.49927L16.6707 1.73779L16.1936 2.11262C14.2513 3.68007 11.3549 3.54377 9.68527 1.73779C9.68527 1.73779 9.54897 1.73779 9.54897 1.60149L9.31044 1.36296C8.59487 0.749612 7.74299 0.272561 6.78889 0.170336H4.60809C4.60809 0.306637 4.47179 0.306641 4.36956 0.408866H4.33549C3.72213 0.647391 3.14286 0.885913 2.63173 1.36296L2.49543 1.49927L2.12061 1.87409C1.64356 2.35114 1.40503 2.96449 1.1665 3.44154C1.1665 3.57784 1.0302 3.68007 1.0302 3.81637C1.0302 3.95267 0.893904 4.0549 0.893904 4.29342C0.757603 5.1453 0.757603 5.99717 1.0302 6.81497C1.0302 6.95127 1.1665 7.0535 1.1665 7.1898V7.3261C1.1665 7.4624 1.3028 7.56463 1.3028 7.70093C1.4391 7.83723 1.4391 7.93945 1.54133 8.17798C1.77986 8.31428 2.01838 8.55281 2.15468 8.65504L2.39321 8.89355L2.63173 9.13208C4.43771 10.9381 4.43771 14.073 2.49543 16.0152C2.25691 16.2538 1.88208 16.6286 1.77986 16.8671C1.64356 17.0034 1.64355 17.1057 1.54133 17.3442V17.4805C1.40503 17.6168 1.40503 17.719 1.3028 17.8553V17.9916C1.3028 18.1279 1.1665 18.2301 1.1665 18.3664V18.5027C1.1665 18.639 1.1665 18.7413 1.0302 18.8776V20.6835C1.0302 20.8198 1.0302 20.9221 1.1665 21.0584V21.1947C1.40503 22.0465 1.88208 22.8984 2.59766 23.614C4.53994 25.5563 4.53994 28.6912 2.59766 30.5994L2.46136 30.7357L2.22283 30.9742V31.1105C2.08653 31.2468 1.98431 31.349 1.98431 31.4853C1.98431 31.4853 1.98431 31.6216 1.84801 31.6216C1.71171 31.7579 1.71171 31.8602 1.60948 31.9965L1.47318 32.1328C1.47318 32.2691 1.33688 32.269 1.33688 32.3713C1.33688 32.4735 1.20058 32.5076 1.20058 32.6098C1.20058 32.7461 1.20058 32.7461 1.06428 32.8483C0.825754 33.3254 0.689453 33.9387 0.689453 34.4158V35.3699C0.825753 35.7447 0.825754 36.0855 1.06428 36.324C1.06428 36.4603 1.20058 36.5625 1.20058 36.5625C1.20058 36.5625 1.20058 36.6988 1.33688 36.6988C1.33688 36.8351 1.47318 36.9373 1.47318 37.0736C1.47318 37.0736 1.47318 37.2099 1.60948 37.2099C1.74578 37.4485 1.84801 37.5848 1.98431 37.687C1.98431 37.687 1.98431 37.8233 2.12061 37.8233C2.12061 37.8233 2.12061 37.9596 2.25691 37.9596C2.25691 38.0959 2.39321 38.0959 2.39321 38.0959L2.52951 38.2322C2.66581 38.3685 2.76803 38.3685 2.76803 38.4707L2.90433 38.607C2.90433 38.607 3.04063 38.607 3.04063 38.7433C3.17693 38.8796 3.27916 38.9818 3.41546 38.9818C3.41546 38.9818 3.55176 38.9818 3.55176 39.1181C3.68806 39.2544 3.79028 39.2544 3.92658 39.3567H3.99473C4.13103 39.493 4.23326 39.493 4.47179 39.493C4.60809 39.493 4.84661 39.6293 4.94884 39.6293H5.08514C5.22144 39.6293 5.32366 39.6293 5.45996 39.7656H6.55036C6.92519 39.7656 7.16372 39.6293 7.50447 39.6293H7.64077C7.77707 39.6293 7.87929 39.493 8.01559 39.493H8.08374C8.22004 39.493 8.32227 39.3567 8.45857 39.3567H8.59487C8.83339 39.2204 9.20822 38.9818 9.44674 38.8796L9.82157 38.5048L9.95787 38.3685C11.9001 36.324 15.0351 36.324 16.9433 38.3685C19.1241 40.6515 22.736 40.5493 24.7805 37.9937C26.2117 36.1877 26.2117 33.5298 24.7805 31.5875C22.8382 29.1682 19.3626 29.066 17.3181 30.9742L17.0796 31.2127L16.6025 31.5875C14.6602 33.155 11.7638 33.0187 9.95787 31.2127L9.71935 30.9742L9.34452 30.4971C7.77707 28.5549 7.91337 25.6585 9.71935 23.8525C10.8097 22.8984 11.2868 21.5695 11.2868 20.2406V19.8657C11.2868 18.6731 10.8097 17.4464 9.85565 16.5945C9.85565 16.4582 9.71935 16.4582 9.71935 16.356L9.34452 15.8789C7.77707 13.9367 7.91337 11.0403 9.71935 9.23431L9.85565 9.09801L9.99195 8.96171C11.9342 6.9172 15.0691 6.9172 16.9773 8.96171L17.1136 9.09801L17.2499 9.23431L17.4885 9.47283C17.6248 9.47283 17.6248 9.60913 17.727 9.60913C17.8292 9.60913 17.8633 9.74543 17.9655 9.74543C18.0677 9.74543 18.1018 9.88173 18.204 9.88173C18.3063 9.88173 18.3403 10.018 18.4426 10.018C18.5448 10.018 18.5789 10.1543 18.6811 10.1543C18.7833 10.1543 18.8174 10.2906 18.9196 10.2906C19.0218 10.2906 19.0559 10.2906 19.1581 10.4269C19.2944 10.4269 19.2944 10.4269 19.3967 10.5632H21.4412C21.5775 10.5632 21.6797 10.5632 21.816 10.4269H22.0545C22.1908 10.4269 22.293 10.2906 22.4293 10.2906H22.5656C22.7019 10.2906 22.8042 10.1543 23.0427 10.0521C23.5197 9.81358 23.9968 9.43876 24.3716 9.09801L24.5079 8.96171C26.4502 6.9172 29.5851 6.9172 31.4933 8.96171C33.5378 11.381 37.2861 11.2447 39.2283 8.72318C40.5232 6.5083 40.5232 3.85044 39.092 2.04446Z" fill="#F3BB2D"/>
<path d="M66.5898 17.0035C65.8742 16.2879 65.2609 15.8108 64.409 15.436C63.6934 15.0612 62.8415 14.8227 61.7511 14.8227C60.797 14.8227 59.8088 15.0612 59.0933 15.436C58.3777 15.8108 57.7643 16.2879 57.2873 17.0035C56.8102 17.6168 56.4354 18.3324 56.1969 19.1843C55.9584 20.0361 55.8221 20.888 55.8221 21.7058C55.8221 22.5236 55.9584 23.4096 56.2991 24.2274C56.5376 25.0793 57.0147 25.6585 57.4917 26.2719C57.9688 26.8852 58.6844 27.3623 59.434 27.703C60.1496 28.0779 61.0015 28.1801 61.9556 28.1801C63.046 28.1801 63.8978 27.9416 64.6134 27.5667C65.329 27.1919 66.0446 26.7149 66.6579 25.9993L69.1795 28.6571C68.2254 29.7475 67.135 30.4631 65.9083 30.9402C64.7157 31.4172 63.3867 31.6557 61.9215 31.6557C60.4903 31.6557 59.0251 31.4172 57.8325 30.9402C56.6399 30.4631 55.5495 29.7475 54.6976 28.8957C53.8457 28.0438 53.1301 26.9534 52.6531 25.7608C52.176 24.5681 51.9375 23.1029 51.9375 21.6717C51.9375 20.2406 52.176 18.7754 52.6531 17.5827C53.1301 16.3901 53.8457 15.2997 54.6976 14.3115C55.5495 13.4597 56.6399 12.7441 57.8325 12.267C59.0251 11.79 60.4903 11.5515 61.9215 11.5515C63.3527 11.5515 64.6816 11.79 65.9083 12.267C67.2372 12.7441 68.3276 13.596 69.2817 14.5501L66.5898 17.0035ZM74.7678 21.4673C74.7678 22.4214 74.9041 23.4096 75.2449 24.1252C75.4834 24.977 75.9604 25.6926 76.4375 26.306C76.9145 26.9193 77.6301 27.3964 78.3798 27.6349C79.0953 28.0097 80.0835 28.1119 81.0376 28.1119C81.9917 28.1119 82.8436 27.9756 83.6955 27.6349C84.411 27.2601 85.1266 26.783 85.6377 26.306C86.1148 25.6926 86.5919 24.977 86.8304 24.1252C87.0689 23.2733 87.3074 22.4214 87.3074 21.4673C87.3074 20.5132 87.1711 19.525 86.8304 18.8094C86.5919 17.9576 86.1148 17.242 85.6377 16.6286C85.1607 16.0153 84.4451 15.5382 83.6955 15.2997C82.9799 14.9249 81.9917 14.8227 81.0376 14.8227C80.0835 14.8227 79.2316 14.959 78.3798 15.2997C77.6642 15.6745 76.9486 16.1516 76.4375 16.6286C75.9604 17.242 75.4834 17.9576 75.2449 18.8094C75.0063 19.6613 74.7678 20.5132 74.7678 21.4673ZM70.9173 21.4673C70.9173 20.0361 71.1558 18.7072 71.6329 17.4805C72.1099 16.2879 72.8255 15.1975 73.8137 14.2093C74.7678 13.2552 75.756 12.5056 77.0849 12.0285C78.2775 11.5515 79.6065 11.1766 81.0717 11.1766C82.5369 11.1766 83.8318 11.4152 85.0585 12.0285C86.2511 12.5056 87.3415 13.2211 88.3297 14.2093C89.2838 15.1634 89.8971 16.2538 90.5105 17.4805C90.9875 18.6731 91.2261 20.0021 91.2261 21.4673C91.2261 22.8984 90.9875 24.2274 90.5105 25.4541C90.0334 26.6467 89.3179 27.7371 88.3297 28.7253C87.3756 29.6794 86.3874 30.2927 85.0585 30.9061C83.8658 31.3831 82.5369 31.758 81.0717 31.758C79.6405 31.758 78.3116 31.5194 77.0849 30.9061C75.8923 30.429 74.8019 29.7135 73.8137 28.7253C72.8596 27.7712 72.2462 26.783 71.6329 25.4541C71.2921 24.2274 70.9173 22.8984 70.9173 21.4673ZM94.9402 31.2468H98.5522V11.9604H94.9402V31.2468ZM94.0884 4.94089C94.0884 4.22531 94.3269 3.61196 94.8039 2.99861C95.281 2.52156 95.8943 2.14674 96.6099 2.14674C97.3255 2.14674 97.9389 2.38526 98.4159 2.99861C98.893 3.47566 99.1315 4.19123 99.1315 4.94089C99.1315 5.69054 98.893 6.26982 98.4159 6.88317C97.9389 7.36022 97.3255 7.73504 96.6099 7.73504C95.8943 7.73504 95.281 7.49652 94.8039 6.88317C94.3269 6.37204 94.0884 5.65646 94.0884 4.94089ZM103.595 11.9263H107.241V14.9249H107.378C107.855 13.8345 108.57 12.9826 109.797 12.4033C110.887 11.79 112.216 11.4492 113.784 11.4492C114.738 11.4492 115.59 11.5855 116.442 11.9263C117.293 12.1648 118.009 12.6419 118.622 13.2552C119.236 13.8686 119.713 14.5841 120.19 15.5382C120.565 16.4923 120.803 17.5827 120.803 18.9117V31.3491H117.123V19.8998C117.123 19.048 116.987 18.1961 116.748 17.6168C116.51 17.0035 116.135 16.4242 115.794 16.0494C115.419 15.6745 114.942 15.3338 114.363 15.1975C113.886 15.0612 113.273 14.959 112.659 14.959C111.944 14.959 111.228 15.0953 110.615 15.3338C110.001 15.5723 109.422 15.9471 108.911 16.5264C108.434 17.0035 108.059 17.719 107.821 18.5709C107.582 19.4228 107.446 20.3769 107.446 21.4673V31.4854H103.834V11.9604M134.127 28.2142C135.081 28.2142 135.933 28.0779 136.784 27.7371C137.636 27.3623 138.216 26.8852 138.829 26.306C139.306 25.6926 139.783 24.977 140.022 24.1252C140.26 23.2733 140.499 22.4214 140.499 21.3651C140.499 20.411 140.362 19.4228 140.022 18.605C139.783 17.7531 139.306 17.0375 138.829 16.4242C138.216 15.8108 137.636 15.3338 136.784 14.993C135.933 14.6182 135.081 14.516 134.127 14.516C133.172 14.516 132.321 14.6523 131.469 14.993C130.617 15.3679 130.038 15.8449 129.424 16.4242C128.947 17.0375 128.47 17.7531 128.232 18.605C127.993 19.4569 127.755 20.3087 127.755 21.3651C127.755 22.3192 127.891 23.3074 128.232 24.1252C128.47 24.977 128.947 25.6926 129.424 26.306C129.901 26.9193 130.617 27.3964 131.469 27.7371C132.184 27.9756 133.172 28.2142 134.127 28.2142ZM144.145 31.1105H140.533V28.3505H140.396C139.681 29.4409 138.693 30.1564 137.5 30.7698C136.307 31.3831 134.978 31.6217 133.65 31.6217C132.218 31.6217 130.753 31.3831 129.561 30.9061C128.368 30.429 127.277 29.7135 126.426 28.7253C125.574 27.7712 124.858 26.6808 124.483 25.4541C124.006 24.2615 123.768 22.9325 123.768 21.4673C123.768 20.0021 124.006 18.7072 124.483 17.3783C124.96 16.1857 125.574 15.0953 126.426 14.1071C127.277 13.153 128.368 12.4033 129.561 11.9263C130.753 11.4492 132.082 11.2107 133.65 11.2107C134.978 11.2107 136.307 11.4492 137.5 12.0626C138.693 12.6759 139.681 13.4937 140.26 14.4819H140.396V0H144.008V31.1105H144.145ZM162.579 19.8998C162.579 19.048 162.443 18.3324 162.204 17.6168C161.966 16.9012 161.591 16.2879 161.114 15.8108C160.637 15.3338 160.024 14.959 159.41 14.6182C158.695 14.3797 157.979 14.1412 156.991 14.1412C156.139 14.1412 155.287 14.2775 154.572 14.6182C153.856 14.993 153.243 15.3338 152.629 15.9471C152.152 16.4242 151.675 17.0375 151.437 17.7531C151.198 18.4687 150.96 19.082 150.96 19.6954H162.545L162.579 19.8998ZM151.028 22.8985C151.028 23.7503 151.266 24.4659 151.641 25.1815C152.016 25.8971 152.493 26.5104 153.072 26.9875C153.686 27.4645 154.401 27.8393 155.117 28.0779C155.969 28.3164 156.684 28.4527 157.536 28.4527C158.627 28.4527 159.717 28.2142 160.535 27.6008C161.387 27.1238 162.102 26.4082 162.818 25.5563L165.578 27.7371C163.533 30.395 160.637 31.7239 157.025 31.7239C155.458 31.7239 154.129 31.4854 152.936 31.0083C151.743 30.5313 150.653 29.8157 149.801 28.8275C148.949 27.8734 148.234 26.8852 147.859 25.5563C147.382 24.3637 147.143 23.0348 147.143 21.5695C147.143 20.1384 147.382 18.8094 147.859 17.5827C148.336 16.3901 149.051 15.2997 149.903 14.3115C150.755 13.3574 151.846 12.7441 153.038 12.1307C154.231 11.6537 155.56 11.4151 157.025 11.4151C158.729 11.4151 160.16 11.6537 161.353 12.267C162.545 12.8804 163.533 13.596 164.249 14.5501C164.965 15.5042 165.578 16.5946 165.953 17.8213C166.328 19.0139 166.43 20.2406 166.43 21.5695V22.8985H151.028ZM180.673 16.7649C180.196 16.2879 179.719 15.8108 179.106 15.436C178.492 15.0612 177.675 14.8227 176.823 14.8227C175.971 14.8227 175.255 15.0612 174.54 15.436C173.926 15.8108 173.586 16.2879 173.586 17.0035C173.586 17.6168 173.824 18.0939 174.199 18.3324C174.574 18.7072 175.051 18.9457 175.528 19.1843C176.005 19.4228 176.618 19.5591 177.095 19.6613C177.709 19.7976 178.186 19.8998 178.526 19.8998C179.242 20.1384 180.094 20.2747 180.707 20.6154C181.423 20.8539 182.036 21.2288 182.513 21.7058C182.99 22.1829 183.365 22.6599 183.706 23.2733C183.944 23.8866 184.183 24.6022 184.183 25.5563C184.183 26.6467 183.944 27.6008 183.467 28.3164C182.99 29.032 182.377 29.7475 181.661 30.2587C180.946 30.7698 180.094 31.1105 179.14 31.3491C178.186 31.5876 177.197 31.7239 176.38 31.7239C174.812 31.7239 173.381 31.4854 172.154 31.0083C170.962 30.5313 169.871 29.6794 168.883 28.3505L171.643 26.0674C172.257 26.6808 172.836 27.1578 173.586 27.6349C174.335 28.1119 175.153 28.3505 176.243 28.3505C176.72 28.3505 177.197 28.3505 177.675 28.2142C178.152 28.0779 178.526 27.9756 178.867 27.7371C179.242 27.4986 179.48 27.2601 179.719 27.0215C179.958 26.6467 180.094 26.306 180.094 25.9311C180.094 25.4541 179.958 24.977 179.617 24.6022C179.242 24.2274 178.901 23.9889 178.424 23.7503C177.947 23.5118 177.47 23.3755 176.993 23.2733L175.562 22.8985C174.846 22.6599 173.994 22.5236 173.381 22.2851C172.665 22.0466 172.052 21.6717 171.575 21.331C171.098 20.9562 170.621 20.3769 170.246 19.7635C169.871 19.1502 169.769 18.3324 169.769 17.4805C169.769 16.5264 170.008 15.5382 170.382 14.8227C170.757 14.1071 171.337 13.4937 172.086 13.0167C172.802 12.5396 173.517 12.1648 174.369 11.9263C175.221 11.6877 176.175 11.5515 177.027 11.5515C178.356 11.5515 179.549 11.79 180.775 12.267C181.968 12.7441 182.956 13.596 183.672 14.6864L180.673 16.7649ZM187.693 0.477059H191.305V20.0021L199.517 11.79H204.458L195.666 20.4791L205.309 30.8379H200.13L191.339 20.9562V30.8379H187.727V0.477059" fill="white"/>
</g>
<defs>
<clipPath id="clip0_277_2157">
<rect width="204.621" height="40" fill="white" transform="translate(0.689453)"/>
</clipPath>
</defs>
</svg>
