<svg width="258" height="40" viewBox="0 0 258 40" fill="none" xmlns="http://www.w3.org/2000/svg">
<g clip-path="url(#clip0_277_2138)">
<path d="M103.848 2.39596C103.848 1.60358 104.499 0.952148 105.292 0.952148H110.844C111.636 0.952148 112.288 1.60358 112.29 2.39596V6.91977C112.29 7.71215 112.943 8.36548 113.735 8.36548H118.111C118.493 8.36847 118.858 8.52154 119.128 8.79167C119.398 9.06179 119.552 9.42729 119.555 9.80929V30.1941C119.553 30.5753 119.4 30.9405 119.131 31.2101C118.861 31.4797 118.496 31.6321 118.115 31.6341H113.735C113.353 31.6361 112.986 31.789 112.715 32.0597C112.445 32.3304 112.292 32.697 112.29 33.0798V37.6036C112.288 37.986 112.136 38.3524 111.865 38.6228C111.595 38.8933 111.228 39.0459 110.846 39.0474H105.292C104.909 39.0459 104.543 38.8933 104.272 38.6228C104.002 38.3524 103.849 37.986 103.848 37.6036V32.0455C103.848 31.2531 104.499 30.6017 105.292 30.6017H109.673C110.055 30.5997 110.421 30.447 110.692 30.1767C110.963 29.9064 111.116 29.5403 111.118 29.1579V10.8321C111.116 10.4503 110.964 10.0848 110.694 9.81478C110.424 9.5448 110.058 9.39225 109.676 9.39024H105.29C104.908 9.38824 104.542 9.23568 104.272 8.96571C104.002 8.69573 103.85 8.33014 103.848 7.94834V2.39596ZM63.5679 2.39596C63.5663 2.0135 63.4137 1.64713 63.1433 1.37669C62.8729 1.10625 62.5065 0.953653 62.124 0.952148H56.564C56.182 0.955137 55.8165 1.10821 55.5464 1.37833C55.2763 1.64845 55.1232 2.01396 55.1202 2.39596V6.91977C55.1182 7.30258 54.9653 7.66914 54.6946 7.93983C54.4239 8.21052 54.0573 8.36348 53.6745 8.36548H49.2993C48.9173 8.36847 48.5518 8.52154 48.2817 8.79167C48.0115 9.06179 47.8585 9.42729 47.8555 9.80929V30.1941C47.8575 30.5753 48.0098 30.9405 48.2794 31.2101C48.5491 31.4797 48.9142 31.6321 49.2955 31.6341H53.6745C54.4669 31.6341 55.1202 32.2874 55.1202 33.0798V37.6017C55.1227 37.984 55.2756 38.35 55.5458 38.6205C55.8159 38.8911 56.1817 39.0444 56.564 39.0474H62.124C62.5065 39.0459 62.8729 38.8933 63.1433 38.6228C63.4137 38.3524 63.5663 37.986 63.5679 37.6036V32.0455C63.5663 31.663 63.4137 31.2967 63.1433 31.0262C62.8729 30.7558 62.5065 30.6032 62.124 30.6017H57.745C57.3625 30.5997 56.9962 30.447 56.7256 30.1767C56.455 29.9064 56.3018 29.5403 56.2993 29.1579V10.836C56.2993 10.0436 56.9526 9.39024 57.745 9.39024H62.1259C62.5077 9.38824 62.8733 9.23568 63.1433 8.96571C63.4133 8.69573 63.5658 8.33014 63.5679 7.94834V2.39596ZM78.5621 10.9464C78.5646 10.6274 78.6925 10.3222 78.918 10.0966C79.1436 9.87104 79.4489 9.74321 79.7679 9.74072H91.966C92.2002 9.74235 92.429 9.81198 92.6244 9.94115C92.8198 10.0703 92.9736 10.2535 93.0669 10.4683L95.044 15.036C95.1367 15.2515 95.2902 15.4353 95.4858 15.5649C95.6813 15.6944 95.9104 15.7642 96.145 15.7655H100.238C100.897 15.7655 101.44 16.3083 101.44 16.9674V30.4512C101.439 30.7705 101.311 31.0763 101.085 31.3021C100.86 31.5279 100.554 31.6554 100.235 31.6569H95.0593C94.74 31.6554 94.4342 31.5279 94.2084 31.3021C93.9826 31.0763 93.8551 30.7705 93.8536 30.4512V17.9312C93.8516 17.6127 93.7244 17.3077 93.4996 17.0822C93.2747 16.8566 92.9702 16.7285 92.6517 16.7255H87.3507C87.0322 16.7285 86.7277 16.8566 86.5028 17.0822C86.2779 17.3077 86.1508 17.6127 86.1488 17.9312V30.4512C86.1473 30.7705 86.0198 31.0763 85.794 31.3021C85.5682 31.5279 85.2624 31.6554 84.9431 31.6569H79.7679C79.4485 31.6554 79.1427 31.5279 78.9169 31.3021C78.6912 31.0763 78.5636 30.7705 78.5621 30.4512V10.9464ZM66.2802 10.9464C66.2827 10.6274 66.4106 10.3222 66.6361 10.0966C66.8617 9.87104 67.1669 9.74321 67.486 9.74072H72.6631C72.9819 9.74322 73.2869 9.87111 73.5122 10.0967C73.7375 10.3224 73.8649 10.6276 73.8669 10.9464V30.4512C73.8654 30.7702 73.7382 31.0757 73.5128 31.3014C73.2874 31.5272 72.9821 31.6549 72.6631 31.6569H67.486C67.1666 31.6554 66.8608 31.5279 66.635 31.3021C66.4093 31.0763 66.2817 30.7705 66.2802 30.4512V10.9464Z" fill="#1760FA"/>
<path d="M15.7039 20.0875V20.2151C16.7325 20.5713 17.6296 21.2189 18.2925 22.0818C18.9858 23.0151 19.3439 24.158 19.3039 25.3218C19.3253 26.1768 19.161 27.0262 18.8223 27.8115C18.4836 28.5968 17.9786 29.2992 17.342 29.8704C16.0485 31.0497 14.349 31.683 12.5992 31.638H0.427734V9.71419H12.2049C14.0601 9.71419 15.6087 10.2494 16.8506 11.3199C17.4573 11.8318 17.9404 12.4743 18.2637 13.1993C18.587 13.9244 18.742 14.7131 18.7173 15.5066C18.7229 16.486 18.435 17.4447 17.8906 18.2589C17.3481 19.0612 16.5892 19.6948 15.7039 20.0875ZM11.1268 14.5256H5.82583V18.4209H11.1268C11.6792 18.4456 12.2163 18.2285 12.5992 17.8304C12.9687 17.4685 13.1801 16.9732 13.1877 16.4551C13.1877 15.9523 12.9896 15.4704 12.6373 15.1123C12.4409 14.9139 12.2048 14.7592 11.9445 14.6585C11.6842 14.5577 11.4055 14.5112 11.1268 14.5256ZM5.82583 26.8609H11.5839C11.8771 26.8691 12.1688 26.8152 12.4397 26.7026C12.7105 26.59 12.9544 26.4212 13.1554 26.2075C13.5477 25.817 13.7725 25.2875 13.7763 24.7332C13.7747 24.4833 13.7182 24.2367 13.611 24.0109C13.5037 23.7852 13.3481 23.5857 13.1554 23.4266C12.7302 23.0298 12.1652 22.8175 11.5839 22.8361H5.82583V26.8609ZM38.9515 31.638H21.8658V9.71419H38.9515V14.9428H27.262V18.0875H37.3001V22.998H27.262V26.4018H38.9515V31.638ZM144.22 22.4818H149.746C149.523 25.1451 148.277 27.6185 146.27 29.3828C144.241 31.1923 141.673 32.097 138.565 32.097C135.167 32.097 132.42 31.0075 130.327 28.8285C128.233 26.6475 127.186 23.9447 127.184 20.7142C127.184 17.4723 128.232 14.7485 130.325 12.5428C132.418 10.337 135.163 9.22657 138.565 9.20752C141.597 9.20752 144.127 10.1009 146.152 11.8875C148.144 13.5873 149.407 15.9876 149.679 18.5923H144.091C143.803 17.4052 143.115 16.3537 142.142 15.6151C141.098 14.8365 139.814 14.4471 138.513 14.5142C136.704 14.5351 135.275 15.1351 134.228 16.3142C133.193 17.5216 132.646 19.0714 132.692 20.6609C132.651 22.2658 133.211 23.8284 134.262 25.0418C135.296 26.2113 136.731 26.798 138.567 26.798C139.892 26.8407 141.193 26.4376 142.262 25.6532C143.269 24.8597 143.962 23.7356 144.22 22.4799V22.4818ZM156.925 31.6037H151.529V9.69895H162.843C165.197 9.69895 167.072 10.2323 168.466 11.2989C169.86 12.3656 170.569 13.8704 170.59 15.8132C170.59 17.8837 169.872 19.4323 168.433 20.457V20.5866C170.308 21.0437 171.245 22.4494 171.245 24.8018V31.6037H165.849V25.7523C165.849 24.9447 165.435 24.5428 164.609 24.5447H156.923V31.6056L156.925 31.6037ZM156.925 14.9313V19.7694H162.386C163.125 19.8075 163.852 19.5751 164.432 19.1142C164.965 18.6609 165.256 17.9828 165.218 17.2837C165.235 16.9532 165.173 16.6235 165.036 16.3222C164.899 16.021 164.692 15.7569 164.432 15.5523C163.848 15.1181 163.133 14.8988 162.407 14.9313H156.925ZM186.418 9.70085H192.403L183.835 23.6266V31.6075H178.441V23.657L169.843 9.69895H175.957L181.184 18.5237L186.418 9.70085ZM204.944 9.70085C205.964 9.67549 206.979 9.8593 207.925 10.2409C208.871 10.6226 209.73 11.194 210.447 11.9199C211.931 13.3789 212.672 15.2151 212.67 17.4247C212.67 19.6913 211.917 21.558 210.414 23.0189C209.699 23.7328 208.846 24.2945 207.907 24.6702C206.969 25.046 205.964 25.2281 204.953 25.2056H199.024V31.6151H193.632V9.70085H204.944ZM199.024 20.0932H204.454C205.165 20.1123 205.854 19.8551 206.38 19.3751C206.912 18.8799 207.199 18.1751 207.165 17.4494C207.174 17.1064 207.104 16.7659 206.961 16.4541C206.818 16.1424 206.604 15.8677 206.338 15.6513C205.823 15.1754 205.144 14.9179 204.443 14.9332H199.024V20.0951V20.0932ZM213.214 9.70085H232.803V14.9275H225.706V31.6018H220.312V14.9313H213.214V9.70085ZM252.504 28.8266C250.369 31.0037 247.569 32.0932 244.1 32.097C240.633 32.1009 237.833 31.0113 235.702 28.8285C233.565 26.6266 232.496 23.9218 232.496 20.7142C232.496 17.5085 233.565 14.7847 235.702 12.5428C237.835 10.3199 240.635 9.20752 244.1 9.20752C247.567 9.20752 250.367 10.3199 252.504 12.5409C254.639 14.7656 255.708 17.4894 255.708 20.7161C255.708 23.9409 254.639 26.6437 252.504 28.8266ZM244.1 26.7999C245.955 26.7999 247.437 26.1999 248.548 24.9999C249.651 23.8241 250.249 22.263 250.214 20.6513C250.236 19.8528 250.1 19.0579 249.814 18.3121C249.528 17.5662 249.098 16.8841 248.548 16.3047C247.458 15.1028 245.976 14.5028 244.1 14.5047C242.226 14.5047 240.732 15.1066 239.62 16.3047C238.529 17.4845 237.942 19.0446 237.986 20.6513C237.95 22.2572 238.536 23.8149 239.62 24.9999C240.732 26.1999 242.226 26.7999 244.1 26.7999Z" fill="white"/>
</g>
<defs>
<clipPath id="clip0_277_2138">
<rect width="257.143" height="40" fill="white" transform="translate(0.427734)"/>
</clipPath>
</defs>
</svg>
