<svg width="220" height="220" viewBox="0 0 220 220" fill="none" xmlns="http://www.w3.org/2000/svg">
<path d="M196.588 88.1794C210.306 98.5904 212.666 118.399 201.529 131.773C199.233 134.525 196.531 136.773 193.565 138.496C185.859 142.978 178.984 148.757 173.598 155.858L172.142 157.772C166.593 165.083 162.581 173.433 160.274 182.319C159.189 186.52 157.166 190.565 154.183 194.148C144.224 206.093 126.544 208.514 113.74 199.686C105.299 193.864 100.767 184.631 100.595 175.218C100.358 161.694 95.4588 148.651 87.1801 137.956C77.5563 125.536 70.6631 108.174 84.3232 90.1724C97.8477 72.3594 116.481 74.3733 131.092 80.266C143.746 85.3767 157.705 86.1801 170.951 82.8992C179.544 80.77 188.991 82.4079 196.588 88.1794Z" fill="black" fill-opacity="0.3"/>
<path d="M71.1864 143.877C83.5527 153.268 87.3119 169.138 79.5795 179.324C71.8471 189.511 55.5534 190.157 43.187 180.766C30.8136 171.377 27.0544 155.507 34.7868 145.32C42.5191 135.132 58.8201 134.487 71.1864 143.877Z" fill="black" fill-opacity="0.3"/>
<path d="M48.7762 72.1789C61.1426 81.5698 64.9017 97.4399 57.1693 107.627C49.4369 117.813 33.1433 118.459 20.7769 109.068C8.40331 99.6783 4.65138 83.8073 12.3838 73.6205C20.1162 63.4337 36.4099 62.7888 48.7762 72.1789Z" fill="black" fill-opacity="0.3"/>
<path d="M132.18 63.513C144.553 72.9029 160.847 72.2572 168.579 62.0705C176.312 51.8837 172.553 36.0129 160.186 26.6228C147.813 17.2329 131.519 17.8785 123.787 28.0653C116.054 38.2521 119.814 54.1229 132.18 63.513Z" fill="black" fill-opacity="0.3"/>
<path d="M57.1206 61.1995C69.487 70.5904 85.7807 69.9447 93.5131 59.758C101.245 49.5712 97.4863 33.7011 85.12 24.3103C72.7536 14.9194 56.4599 15.5651 48.7275 25.7518C40.9951 35.9386 44.7472 51.8104 57.1206 61.1995Z" fill="black" fill-opacity="0.3"/>
</svg>
