<svg width="49" height="642" viewBox="0 0 49 642" fill="none" xmlns="http://www.w3.org/2000/svg">
<path d="M41.7529 285.171C41.7623 286.585 40.5982 287.73 39.1783 287.675C38.8858 287.664 38.6058 287.601 38.3467 287.494C37.6729 287.217 36.9567 287.059 36.229 287.064L36.0326 287.065C35.2833 287.07 34.5432 287.227 33.8533 287.522C33.5275 287.662 33.1651 287.733 32.7847 287.718C31.5158 287.668 30.4787 286.639 30.4124 285.364C30.3687 284.523 30.7405 283.766 31.3409 283.283C32.2042 282.591 32.8041 281.619 33.0839 280.545C33.4083 279.297 34.1884 277.979 36.0334 277.966C37.8594 277.954 38.657 279.267 39.0033 280.513C39.3028 281.592 39.9459 282.541 40.8178 283.239C41.3835 283.691 41.748 284.388 41.7529 285.171Z" fill="white"/>
<path d="M31.9044 279.801C31.9126 281.076 31.073 282.115 30.0288 282.122C28.9846 282.129 28.1315 281.101 28.1233 279.826C28.1146 278.551 28.9543 277.512 29.9984 277.505C31.0427 277.498 31.8962 278.526 31.9044 279.801Z" fill="white"/>
<path d="M35.4279 274.751C35.4361 276.026 34.5964 277.065 33.5523 277.072C32.5081 277.079 31.6549 276.051 31.6467 274.776C31.6381 273.501 32.4782 272.462 33.5223 272.455C34.5665 272.448 35.4196 273.476 35.4279 274.751Z" fill="white"/>
<path d="M40.1404 279.745C40.1491 281.021 41.0022 282.048 42.0464 282.041C43.0906 282.035 43.9303 280.995 43.922 279.72C43.9134 278.445 43.0602 277.417 42.0161 277.424C40.9719 277.431 40.1322 278.47 40.1404 279.745Z" fill="white"/>
<path d="M36.551 274.745C36.5592 276.02 37.4124 277.047 38.4566 277.04C39.5007 277.034 40.3404 275.994 40.3322 274.719C40.324 273.445 39.4708 272.417 38.4266 272.424C37.3825 272.431 36.5423 273.469 36.551 274.745Z" fill="white"/>
<path d="M41.7529 573.171C41.7623 574.585 40.5982 575.73 39.1783 575.675C38.8858 575.664 38.6058 575.601 38.3467 575.494C37.6729 575.217 36.9567 575.059 36.229 575.064L36.0326 575.065C35.2833 575.07 34.5432 575.227 33.8533 575.522C33.5275 575.662 33.1651 575.733 32.7847 575.718C31.5158 575.668 30.4787 574.639 30.4124 573.364C30.3687 572.523 30.7405 571.766 31.3409 571.283C32.2042 570.591 32.8041 569.619 33.0839 568.545C33.4083 567.297 34.1884 565.979 36.0334 565.966C37.8594 565.954 38.657 567.267 39.0033 568.513C39.3028 569.592 39.9459 570.541 40.8178 571.239C41.3835 571.691 41.748 572.388 41.7529 573.171Z" fill="white"/>
<path d="M31.9044 567.801C31.9126 569.076 31.073 570.115 30.0288 570.122C28.9846 570.129 28.1315 569.101 28.1233 567.826C28.1146 566.551 28.9543 565.512 29.9984 565.505C31.0427 565.498 31.8962 566.526 31.9044 567.801Z" fill="white"/>
<path d="M35.4279 562.751C35.4361 564.026 34.5964 565.065 33.5523 565.072C32.5081 565.079 31.6549 564.051 31.6467 562.776C31.6381 561.501 32.4782 560.462 33.5223 560.455C34.5665 560.448 35.4196 561.476 35.4279 562.751Z" fill="white"/>
<path d="M40.1404 567.745C40.1491 569.021 41.0022 570.048 42.0464 570.041C43.0906 570.035 43.9303 568.995 43.922 567.72C43.9134 566.445 43.0602 565.417 42.0161 565.424C40.9719 565.431 40.1322 566.47 40.1404 567.745Z" fill="white"/>
<path d="M36.551 562.745C36.5592 564.02 37.4124 565.047 38.4566 565.04C39.5007 565.034 40.3404 563.994 40.3322 562.719C40.324 561.445 39.4708 560.417 38.4266 560.424C37.3825 560.431 36.5423 561.469 36.551 562.745Z" fill="white"/>
<path d="M21.2366 126.275C21.3901 127.681 20.3487 128.939 18.9306 129.029C18.6385 129.047 18.3535 129.013 18.0848 128.933C17.3864 128.726 16.6578 128.642 15.9344 128.721L15.7392 128.742C14.9942 128.824 14.274 129.055 13.6178 129.419C13.3079 129.591 12.9546 129.699 12.5747 129.723C11.3074 129.803 10.1708 128.884 9.97483 127.623C9.84568 126.791 10.1383 126 10.6865 125.458C11.4747 124.681 11.9724 123.653 12.1413 122.556C12.3368 121.282 12.9785 119.891 14.8126 119.691C16.6279 119.493 17.5552 120.718 18.0267 121.922C18.4346 122.965 19.171 123.843 20.1095 124.448C20.7183 124.84 21.1519 125.496 21.2366 126.275Z" fill="white"/>
<path d="M10.8952 121.94C11.0333 123.208 10.3039 124.327 9.26588 124.44C8.22785 124.554 7.27438 123.618 7.1363 122.351C6.99772 121.083 7.72708 119.964 8.76511 119.85C9.80318 119.737 10.7571 120.673 10.8952 121.94Z" fill="white"/>
<path d="M13.8893 116.556C14.0274 117.823 13.298 118.942 12.26 119.056C11.222 119.169 10.2685 118.234 10.1304 116.966C9.9919 115.698 10.7217 114.579 11.7598 114.466C12.7978 114.353 13.7512 115.288 13.8893 116.556Z" fill="white"/>
<path d="M19.0811 121.039C19.2197 122.307 20.1732 123.242 21.2112 123.129C22.2492 123.016 22.9786 121.896 22.8405 120.629C22.702 119.361 21.7485 118.425 20.7105 118.539C19.6724 118.652 18.943 119.772 19.0811 121.039Z" fill="white"/>
<path d="M15.0054 116.432C15.1435 117.699 16.097 118.635 17.135 118.522C18.173 118.408 18.9024 117.289 18.7643 116.021C18.6263 114.754 17.6728 113.818 16.6348 113.932C15.5967 114.045 14.8669 115.164 15.0054 116.432Z" fill="white"/>
<path d="M21.2366 418.398C21.3901 419.804 20.3487 421.062 18.9306 421.152C18.6385 421.17 18.3535 421.136 18.0848 421.056C17.3864 420.849 16.6578 420.765 15.9344 420.844L15.7392 420.865C14.9942 420.947 14.274 421.178 13.6178 421.542C13.3079 421.714 12.9546 421.822 12.5747 421.846C11.3074 421.926 10.1708 421.008 9.97483 419.746C9.84568 418.914 10.1383 418.123 10.6865 417.581C11.4747 416.804 11.9724 415.776 12.1413 414.679C12.3368 413.405 12.9785 412.014 14.8126 411.814C16.6279 411.616 17.5552 412.841 18.0267 414.045C18.4346 415.088 19.171 415.966 20.1095 416.571C20.7183 416.963 21.1519 417.619 21.2366 418.398Z" fill="white"/>
<path d="M10.8952 414.063C11.0333 415.331 10.3039 416.45 9.26588 416.564C8.22785 416.677 7.27438 415.741 7.1363 414.474C6.99772 413.206 7.72708 412.087 8.76511 411.973C9.80318 411.86 10.7571 412.796 10.8952 414.063Z" fill="white"/>
<path d="M13.8893 408.679C14.0274 409.946 13.298 411.065 12.26 411.179C11.222 411.292 10.2685 410.357 10.1304 409.089C9.9919 407.821 10.7217 406.702 11.7598 406.589C12.7978 406.476 13.7512 407.411 13.8893 408.679Z" fill="white"/>
<path d="M19.0811 413.162C19.2197 414.43 20.1732 415.365 21.2112 415.252C22.2492 415.139 22.9786 414.019 22.8405 412.752C22.702 411.484 21.7485 410.549 20.7105 410.662C19.6724 410.775 18.943 411.895 19.0811 413.162Z" fill="white"/>
<path d="M15.0054 408.555C15.1435 409.822 16.097 410.758 17.135 410.645C18.173 410.531 18.9024 409.412 18.7643 408.144C18.6263 406.877 17.6728 405.941 16.6348 406.055C15.5967 406.168 14.8669 407.287 15.0054 408.555Z" fill="white"/>
<path d="M21.2366 253.982C21.3901 255.388 20.3487 256.646 18.9306 256.736C18.6385 256.755 18.3535 256.72 18.0848 256.64C17.3864 256.434 16.6578 256.349 15.9344 256.429L15.7392 256.45C14.9942 256.531 14.274 256.763 13.6178 257.126C13.3079 257.299 12.9546 257.406 12.5747 257.43C11.3074 257.51 10.1708 256.592 9.97483 255.33C9.84568 254.498 10.1383 253.707 10.6865 253.166C11.4747 252.389 11.9724 251.361 12.1413 250.264C12.3368 248.989 12.9785 247.599 14.8126 247.398C16.6279 247.2 17.5552 248.425 18.0267 249.629C18.4346 250.672 19.171 251.55 20.1095 252.155C20.7183 252.548 21.1519 253.204 21.2366 253.982Z" fill="white"/>
<path d="M10.8952 249.648C11.0333 250.915 10.3039 252.035 9.26588 252.148C8.22785 252.261 7.27438 251.326 7.1363 250.058C6.99772 248.791 7.72708 247.671 8.76511 247.558C9.80318 247.445 10.7571 248.38 10.8952 249.648Z" fill="white"/>
<path d="M13.8893 244.263C14.0274 245.53 13.298 246.65 12.26 246.763C11.222 246.877 10.2685 245.941 10.1304 244.674C9.9919 243.406 10.7217 242.287 11.7598 242.173C12.7978 242.06 13.7512 242.996 13.8893 244.263Z" fill="white"/>
<path d="M19.0811 248.747C19.2197 250.014 20.1732 250.95 21.2112 250.836C22.2492 250.723 22.9786 249.604 22.8405 248.336C22.702 247.069 21.7485 246.133 20.7105 246.246C19.6724 246.36 18.943 247.479 19.0811 248.747Z" fill="white"/>
<path d="M15.0054 244.139C15.1435 245.407 16.097 246.342 17.135 246.229C18.173 246.116 18.9024 244.996 18.7643 243.729C18.6263 242.461 17.6728 241.526 16.6348 241.639C15.5967 241.753 14.8669 242.872 15.0054 244.139Z" fill="white"/>
<path d="M21.2366 541.982C21.3901 543.388 20.3487 544.646 18.9306 544.736C18.6385 544.755 18.3535 544.72 18.0848 544.64C17.3864 544.434 16.6578 544.349 15.9344 544.429L15.7392 544.45C14.9942 544.531 14.274 544.763 13.6178 545.126C13.3079 545.299 12.9546 545.406 12.5747 545.43C11.3074 545.51 10.1708 544.592 9.97483 543.33C9.84568 542.498 10.1383 541.707 10.6865 541.166C11.4747 540.389 11.9724 539.361 12.1413 538.264C12.3368 536.989 12.9785 535.599 14.8126 535.398C16.6279 535.2 17.5552 536.425 18.0267 537.629C18.4346 538.672 19.171 539.55 20.1095 540.155C20.7183 540.548 21.1519 541.204 21.2366 541.982Z" fill="white"/>
<path d="M10.8952 537.648C11.0333 538.915 10.3039 540.035 9.26588 540.148C8.22785 540.261 7.27438 539.326 7.1363 538.058C6.99772 536.791 7.72708 535.671 8.76511 535.558C9.80318 535.445 10.7571 536.38 10.8952 537.648Z" fill="white"/>
<path d="M13.8893 532.263C14.0274 533.53 13.298 534.65 12.26 534.763C11.222 534.877 10.2685 533.941 10.1304 532.674C9.9919 531.406 10.7217 530.287 11.7598 530.173C12.7978 530.06 13.7512 530.996 13.8893 532.263Z" fill="white"/>
<path d="M19.0811 536.747C19.2197 538.014 20.1732 538.95 21.2112 538.836C22.2492 538.723 22.9786 537.604 22.8405 536.336C22.702 535.069 21.7485 534.133 20.7105 534.246C19.6724 534.36 18.943 535.479 19.0811 536.747Z" fill="white"/>
<path d="M15.0054 532.139C15.1435 533.407 16.097 534.342 17.135 534.229C18.173 534.116 18.9024 532.996 18.7643 531.729C18.6263 530.461 17.6728 529.526 16.6348 529.639C15.5967 529.753 14.8669 530.872 15.0054 532.139Z" fill="white"/>
<path d="M18.004 78.7443C17.7988 80.1433 16.4743 81.0987 15.0792 80.8289C14.7919 80.7731 14.5248 80.668 14.2848 80.5232C13.6609 80.1471 12.9769 79.8823 12.2569 79.7768L12.0626 79.7481C11.3212 79.6393 10.5658 79.6823 9.83924 79.8689C9.49602 79.9577 9.12697 79.9727 8.75324 79.9005C7.50665 79.6586 6.6377 78.4839 6.76561 77.2134C6.84997 76.3758 7.33232 75.6838 7.99902 75.2979C8.95735 74.7445 9.69781 73.8749 10.1373 72.8556C10.6473 71.6712 11.6183 70.487 13.4439 70.7546C15.2506 71.02 15.8397 72.4391 15.993 73.7231C16.1252 74.8353 16.617 75.8704 17.373 76.6922C17.8634 77.2254 18.118 77.9694 18.004 78.7443Z" fill="white"/>
<path d="M9.08248 71.9364C8.89716 73.1978 7.90956 74.0975 6.87642 73.9459C5.84329 73.7943 5.15595 72.6488 5.34128 71.3875C5.5262 70.1257 6.5138 69.2259 7.54693 69.3775C8.58012 69.5291 9.26776 70.6751 9.08248 71.9364Z" fill="white"/>
<path d="M13.3266 67.4828C13.1413 68.7442 12.1537 69.6439 11.1206 69.4923C10.0874 69.3407 9.40009 68.1952 9.58542 66.9339C9.77039 65.672 10.7583 64.7727 11.7915 64.9244C12.8246 65.076 13.5119 66.2215 13.3266 67.4828Z" fill="white"/>
<path d="M17.2296 73.1414C17.0446 74.4032 17.732 75.5487 18.7651 75.7003C19.7982 75.8519 20.7859 74.9521 20.9712 73.6908C21.1561 72.429 20.4688 71.2835 19.4357 71.1319C18.4025 70.9803 17.4149 71.8801 17.2296 73.1414Z" fill="white"/>
<path d="M14.4389 67.6511C14.2536 68.9125 14.9409 70.0579 15.9741 70.2096C17.0072 70.3612 17.9948 69.4614 18.1801 68.2001C18.3655 66.9387 17.6781 65.7933 16.645 65.6416C15.6119 65.49 14.6239 66.3893 14.4389 67.6511Z" fill="white"/>
<path d="M18.004 370.867C17.7988 372.266 16.4743 373.222 15.0792 372.952C14.7919 372.896 14.5248 372.791 14.2848 372.646C13.6609 372.27 12.9769 372.005 12.2569 371.9L12.0626 371.871C11.3212 371.762 10.5658 371.805 9.83924 371.992C9.49602 372.08 9.12697 372.095 8.75324 372.023C7.50665 371.781 6.6377 370.607 6.76561 369.336C6.84997 368.499 7.33232 367.807 7.99902 367.421C8.95735 366.867 9.69781 365.998 10.1373 364.978C10.6473 363.794 11.6183 362.61 13.4439 362.877C15.2506 363.143 15.8397 364.562 15.993 365.846C16.1252 366.958 16.617 367.993 17.373 368.815C17.8634 369.348 18.118 370.092 18.004 370.867Z" fill="white"/>
<path d="M9.08248 364.059C8.89716 365.321 7.90956 366.22 6.87642 366.069C5.84329 365.917 5.15595 364.772 5.34128 363.51C5.5262 362.248 6.5138 361.349 7.54693 361.5C8.58012 361.652 9.26776 362.798 9.08248 364.059Z" fill="white"/>
<path d="M13.3266 359.606C13.1413 360.867 12.1537 361.767 11.1206 361.615C10.0874 361.463 9.40009 360.318 9.58542 359.057C9.77039 357.795 10.7583 356.896 11.7915 357.047C12.8246 357.199 13.5119 358.344 13.3266 359.606Z" fill="white"/>
<path d="M17.2296 365.264C17.0446 366.526 17.732 367.671 18.7651 367.823C19.7982 367.975 20.7859 367.075 20.9712 365.814C21.1561 364.552 20.4688 363.406 19.4357 363.255C18.4025 363.103 17.4149 364.003 17.2296 365.264Z" fill="white"/>
<path d="M14.4389 359.774C14.2536 361.035 14.9409 362.181 15.9741 362.332C17.0072 362.484 17.9948 361.584 18.1801 360.323C18.3655 359.062 17.6781 357.916 16.645 357.764C15.6119 357.613 14.6239 358.512 14.4389 359.774Z" fill="white"/>
<path d="M38.0824 103.074C37.9106 104.478 36.6092 105.465 35.208 105.228C34.9195 105.179 34.6499 105.08 34.4066 104.941C33.7739 104.58 33.0838 104.332 32.3615 104.243L32.1666 104.219C31.4228 104.128 30.6687 104.189 29.9467 104.393C29.6057 104.49 29.2371 104.514 28.8618 104.45C27.6098 104.238 26.7132 103.084 26.8109 101.811C26.8753 100.972 27.3411 100.269 27.9985 99.8669C28.9434 99.2908 29.663 98.4039 30.0782 97.3744C30.5599 96.1782 31.5025 94.9713 33.3339 95.1954C35.1464 95.4178 35.769 96.8225 35.9528 98.1024C36.1114 99.2112 36.6276 100.234 37.4029 101.038C37.9059 101.559 38.178 102.297 38.0824 103.074Z" fill="white"/>
<path d="M29.0007 96.4817C28.8454 97.7471 27.8795 98.6701 26.843 98.5431C25.8066 98.4161 25.0922 97.2873 25.2476 96.0219C25.4025 94.7561 26.3684 93.8331 27.4049 93.9601C28.4413 94.0871 29.156 95.2164 29.0007 96.4817Z" fill="white"/>
<path d="M33.1392 91.9275C32.9839 93.1929 32.0179 94.1159 30.9815 93.9889C29.945 93.8619 29.2307 92.7331 29.386 91.4677C29.5409 90.2018 30.5073 89.2793 31.5437 89.4063C32.5801 89.5333 33.2944 90.6622 33.1392 91.9275Z" fill="white"/>
<path d="M37.1769 97.4911C37.0219 98.757 37.7363 99.8858 38.7727 100.013C39.8092 100.14 40.7752 99.2168 40.9304 97.9515C41.0854 96.6856 40.371 95.5568 39.3346 95.4298C38.2981 95.3028 37.3321 96.2258 37.1769 97.4911Z" fill="white"/>
<path d="M34.2532 92.0693C34.0979 93.3347 34.8122 94.4634 35.8486 94.5905C36.8851 94.7175 37.851 93.7945 38.0064 92.5291C38.1617 91.2637 37.4473 90.1349 36.4109 90.0079C35.3744 89.8809 34.4081 90.8034 34.2532 92.0693Z" fill="white"/>
<path d="M38.0822 395.198C37.9103 396.601 36.6089 397.588 35.2078 397.352C34.9193 397.303 34.6497 397.204 34.4063 397.065C33.7737 396.704 33.0836 396.455 32.3612 396.367L32.1664 396.343C31.4225 396.252 30.6685 396.313 29.9465 396.516C29.6055 396.613 29.2369 396.637 28.8615 396.574C27.6096 396.362 26.713 395.208 26.8107 393.935C26.8751 393.095 27.3409 392.392 27.9982 391.99C28.9431 391.414 29.6627 390.527 30.0779 389.498C30.5596 388.302 31.5023 387.095 33.3336 387.319C35.1461 387.541 35.7688 388.946 35.9525 390.226C36.1112 391.335 36.6274 392.358 37.4026 393.161C37.9056 393.683 38.1778 394.421 38.0822 395.198Z" fill="white"/>
<path d="M29.0005 388.605C28.8452 389.871 27.8792 390.794 26.8428 390.667C25.8063 390.54 25.092 389.411 25.2473 388.145C25.4022 386.88 26.3682 385.957 27.4046 386.084C28.4411 386.211 29.1558 387.34 29.0005 388.605Z" fill="white"/>
<path d="M33.1392 384.051C32.9839 385.316 32.0179 386.239 30.9815 386.112C29.945 385.985 29.2307 384.856 29.386 383.591C29.5409 382.325 30.5073 381.402 31.5437 381.529C32.5801 381.656 33.2944 382.785 33.1392 384.051Z" fill="white"/>
<path d="M37.1766 389.615C37.0217 390.881 37.736 392.009 38.7725 392.136C39.8089 392.263 40.7749 391.34 40.9302 390.075C41.0851 388.809 40.3708 387.68 39.3343 387.553C38.2979 387.426 37.3319 388.349 37.1766 389.615Z" fill="white"/>
<path d="M34.2532 384.192C34.0979 385.458 34.8122 386.586 35.8486 386.714C36.8851 386.841 37.851 385.918 38.0064 384.652C38.1617 383.387 37.4473 382.258 36.4109 382.131C35.3744 382.004 34.4081 382.926 34.2532 384.192Z" fill="white"/>
<path d="M37.8439 224.782C37.6721 226.185 36.3706 227.172 34.9695 226.935C34.681 226.887 34.4114 226.788 34.168 226.649C33.5354 226.288 32.8453 226.039 32.123 225.951L31.9281 225.927C31.1843 225.836 30.4302 225.897 29.7082 226.1C29.3672 226.197 28.9986 226.221 28.6233 226.158C27.3713 225.946 26.4747 224.792 26.5724 223.519C26.6368 222.679 27.1026 221.976 27.7599 221.574C28.7049 220.998 29.4245 220.111 29.8396 219.082C30.3214 217.886 31.264 216.679 33.0954 216.903C34.9079 217.125 35.5305 218.53 35.7143 219.81C35.8729 220.919 36.3891 221.942 37.1644 222.745C37.6674 223.267 37.9395 224.005 37.8439 224.782Z" fill="white"/>
<path d="M28.7622 218.189C28.6069 219.455 27.6409 220.378 26.6045 220.251C25.5681 220.124 24.8537 218.995 25.009 217.729C25.1639 216.464 26.1299 215.541 27.1663 215.668C28.2028 215.795 28.9175 216.924 28.7622 218.189Z" fill="white"/>
<path d="M32.9009 213.635C32.7456 214.9 31.7796 215.823 30.7432 215.696C29.7067 215.569 28.9924 214.44 29.1477 213.175C29.3027 211.909 30.269 210.986 31.3054 211.113C32.3419 211.24 33.0562 212.369 32.9009 213.635Z" fill="white"/>
<path d="M36.9383 219.199C36.7834 220.465 37.4977 221.593 38.5342 221.72C39.5706 221.847 40.5366 220.924 40.6919 219.659C40.8469 218.393 40.1325 217.264 39.0961 217.137C38.0596 217.01 37.0936 217.933 36.9383 219.199Z" fill="white"/>
<path d="M34.0149 213.776C33.8596 215.042 34.5739 216.17 35.6104 216.297C36.6468 216.425 37.6128 215.502 37.7681 214.236C37.9234 212.971 37.2091 211.842 36.1726 211.715C35.1362 211.588 34.1698 212.51 34.0149 213.776Z" fill="white"/>
<path d="M37.8439 512.782C37.6721 514.185 36.3706 515.172 34.9695 514.935C34.681 514.887 34.4114 514.788 34.168 514.649C33.5354 514.288 32.8453 514.039 32.123 513.951L31.9281 513.927C31.1843 513.836 30.4302 513.897 29.7082 514.1C29.3672 514.197 28.9986 514.221 28.6233 514.158C27.3713 513.946 26.4747 512.792 26.5724 511.519C26.6368 510.679 27.1026 509.976 27.7599 509.574C28.7049 508.998 29.4245 508.111 29.8396 507.082C30.3214 505.886 31.264 504.679 33.0954 504.903C34.9079 505.125 35.5305 506.53 35.7143 507.81C35.8729 508.919 36.3891 509.942 37.1644 510.745C37.6674 511.267 37.9395 512.005 37.8439 512.782Z" fill="white"/>
<path d="M28.7622 506.189C28.6069 507.455 27.6409 508.378 26.6045 508.251C25.5681 508.124 24.8537 506.995 25.009 505.729C25.1639 504.464 26.1299 503.541 27.1663 503.668C28.2028 503.795 28.9175 504.924 28.7622 506.189Z" fill="white"/>
<path d="M32.9009 501.635C32.7456 502.9 31.7796 503.823 30.7432 503.696C29.7067 503.569 28.9924 502.44 29.1477 501.175C29.3027 499.909 30.269 498.986 31.3054 499.113C32.3419 499.24 33.0562 500.369 32.9009 501.635Z" fill="white"/>
<path d="M36.9383 507.199C36.7834 508.465 37.4977 509.593 38.5342 509.72C39.5706 509.847 40.5366 508.924 40.6919 507.659C40.8469 506.393 40.1325 505.264 39.0961 505.137C38.0596 505.01 37.0936 505.933 36.9383 507.199Z" fill="white"/>
<path d="M34.0149 501.776C33.8596 503.042 34.5739 504.17 35.6104 504.297C36.6468 504.425 37.6128 503.502 37.7681 502.236C37.9234 500.971 37.2091 499.842 36.1726 499.715C35.1362 499.588 34.1698 500.51 34.0149 501.776Z" fill="white"/>
<path d="M26.7884 24.4189C26.7884 37.674 25.8848 48.4202 24.775 48.4202C23.6641 48.4202 22.7617 37.6728 22.7617 24.4189C22.7617 11.1639 23.6653 0.417725 24.775 0.417725C25.8848 0.417725 26.7884 11.1651 26.7884 24.4189Z" fill="url(#paint0_radial_1_759)"/>
<path d="M24.7756 26.4442C11.5931 26.4442 0.910156 25.5356 0.910156 24.4196C0.910156 23.3024 11.5942 22.395 24.7756 22.395C37.9558 22.395 48.6435 23.3036 48.6435 24.4196C48.6447 25.5356 37.9558 26.4442 24.7756 26.4442Z" fill="url(#paint1_radial_1_759)"/>
<path d="M25.8466 25.4895C18.8685 32.5078 12.7344 37.716 12.1455 37.1215C11.5543 36.5294 16.7348 30.3609 23.7117 23.3438C30.6874 16.3292 36.8216 11.1209 37.4104 11.7154C38.0017 12.3016 32.8212 18.4748 25.8466 25.4895Z" fill="url(#paint2_radial_1_759)"/>
<path d="M23.7117 25.4931C16.7336 18.476 11.5543 12.3016 12.1455 11.7154C12.7344 11.1209 18.8697 16.3304 25.8466 23.3474C32.8224 30.3621 38.0017 36.5293 37.4105 37.1215C36.8216 37.716 30.6863 32.5066 23.7117 25.4931Z" fill="url(#paint3_radial_1_759)"/>
<path d="M38.301 24.4188C38.301 31.9189 32.2574 37.9963 24.7977 37.9963C17.3428 37.9963 11.2969 31.9189 11.2969 24.4188C11.2969 16.9222 17.3428 10.8425 24.7977 10.8425C32.2562 10.8425 38.301 16.9222 38.301 24.4188Z" fill="url(#paint4_radial_1_759)"/>
<path d="M26.7884 172.416C26.7884 185.671 25.8848 196.417 24.775 196.417C23.6641 196.417 22.7617 185.67 22.7617 172.416C22.7617 159.161 23.6653 148.415 24.775 148.415C25.8848 148.415 26.7884 159.162 26.7884 172.416Z" fill="url(#paint5_radial_1_759)"/>
<path d="M24.7756 174.443C11.5931 174.443 0.910156 173.535 0.910156 172.419C0.910156 171.301 11.5942 170.394 24.7756 170.394C37.9558 170.394 48.6435 171.303 48.6435 172.419C48.6447 173.535 37.9558 174.443 24.7756 174.443Z" fill="url(#paint6_radial_1_759)"/>
<path d="M25.8466 173.489C18.8685 180.507 12.7343 185.715 12.1455 185.121C11.5542 184.529 16.7347 178.36 23.7116 171.343C30.6874 164.328 36.8215 159.12 37.4104 159.715C38.0016 160.301 32.8211 166.474 25.8466 173.489Z" fill="url(#paint7_radial_1_759)"/>
<path d="M23.7117 173.492C16.7336 166.475 11.5542 160.301 12.1455 159.715C12.7343 159.12 18.8697 164.33 25.8466 171.347C32.8223 178.361 38.0016 184.529 37.4104 185.121C36.8215 185.715 30.6862 180.506 23.7117 173.492Z" fill="url(#paint8_radial_1_759)"/>
<path d="M38.301 172.417C38.301 179.917 32.2574 185.994 24.7977 185.994C17.3428 185.994 11.2969 179.917 11.2969 172.417C11.2969 164.92 17.3428 158.84 24.7977 158.84C32.2562 158.84 38.301 164.92 38.301 172.417Z" fill="url(#paint9_radial_1_759)"/>
<path d="M26.7884 320.917C26.7884 334.172 25.8848 344.918 24.775 344.918C23.6641 344.918 22.7617 334.171 22.7617 320.917C22.7617 307.662 23.6653 296.916 24.775 296.916C25.8848 296.916 26.7884 307.663 26.7884 320.917Z" fill="url(#paint10_radial_1_759)"/>
<path d="M24.7756 322.944C11.5931 322.944 0.910156 322.035 0.910156 320.919C0.910156 319.802 11.5942 318.895 24.7756 318.895C37.9558 318.895 48.6435 319.803 48.6435 320.919C48.6447 322.035 37.9558 322.944 24.7756 322.944Z" fill="url(#paint11_radial_1_759)"/>
<path d="M25.8466 321.988C18.8685 329.007 12.7343 334.215 12.1455 333.62C11.5542 333.028 16.7348 326.86 23.7117 319.843C30.6874 312.828 36.8215 307.62 37.4104 308.214C38.0016 308.8 32.8211 314.974 25.8466 321.988Z" fill="url(#paint12_radial_1_759)"/>
<path d="M23.7117 321.992C16.7336 314.975 11.5543 308.8 12.1455 308.214C12.7344 307.62 18.8697 312.829 25.8466 319.846C32.8223 326.861 38.0017 333.028 37.4104 333.62C36.8216 334.215 30.6862 329.005 23.7117 321.992Z" fill="url(#paint13_radial_1_759)"/>
<path d="M38.301 320.917C38.301 328.417 32.2574 334.495 24.7977 334.495C17.3428 334.495 11.2969 328.417 11.2969 320.917C11.2969 313.421 17.3428 307.341 24.7977 307.341C32.2562 307.341 38.301 313.421 38.301 320.917Z" fill="url(#paint14_radial_1_759)"/>
<path d="M26.7884 453.668C26.7884 466.923 25.8848 477.669 24.775 477.669C23.6641 477.669 22.7617 466.922 22.7617 453.668C22.7617 440.413 23.6653 429.667 24.775 429.667C25.8848 429.667 26.7884 440.414 26.7884 453.668Z" fill="url(#paint15_radial_1_759)"/>
<path d="M24.7756 455.694C11.5931 455.694 0.910156 454.786 0.910156 453.67C0.910156 452.552 11.5942 451.645 24.7756 451.645C37.9558 451.645 48.6435 452.554 48.6435 453.67C48.6447 454.786 37.9558 455.694 24.7756 455.694Z" fill="url(#paint16_radial_1_759)"/>
<path d="M25.8467 454.74C18.8686 461.759 12.7344 466.967 12.1456 466.372C11.5543 465.78 16.7349 459.612 23.7118 452.595C30.6875 445.58 36.8216 440.372 37.4105 440.966C38.0017 441.552 32.8212 447.726 25.8467 454.74Z" fill="url(#paint17_radial_1_759)"/>
<path d="M23.7118 454.744C16.7337 447.727 11.5543 441.552 12.1456 440.966C12.7344 440.372 18.8698 445.581 25.8467 452.598C32.8224 459.613 38.0017 465.78 37.4105 466.372C36.8216 466.967 30.6863 461.757 23.7118 454.744Z" fill="url(#paint18_radial_1_759)"/>
<path d="M38.301 453.669C38.301 461.169 32.2574 467.246 24.7977 467.246C17.3428 467.246 11.2969 461.169 11.2969 453.669C11.2969 446.172 17.3428 440.092 24.7977 440.092C32.2562 440.092 38.301 446.172 38.301 453.669Z" fill="url(#paint19_radial_1_759)"/>
<path d="M26.7884 617.168C26.7884 630.423 25.8848 641.169 24.775 641.169C23.6641 641.169 22.7617 630.422 22.7617 617.168C22.7617 603.913 23.6653 593.167 24.775 593.167C25.8848 593.167 26.7884 603.914 26.7884 617.168Z" fill="url(#paint20_radial_1_759)"/>
<path d="M24.7756 619.194C11.5931 619.194 0.910156 618.286 0.910156 617.17C0.910156 616.052 11.5942 615.145 24.7756 615.145C37.9558 615.145 48.6435 616.054 48.6435 617.17C48.6447 618.286 37.9558 619.194 24.7756 619.194Z" fill="url(#paint21_radial_1_759)"/>
<path d="M25.8466 618.239C18.8685 625.258 12.7344 630.466 12.1455 629.871C11.5543 629.279 16.7348 623.111 23.7117 616.094C30.6874 609.079 36.8216 603.871 37.4104 604.465C38.0017 605.051 32.8212 611.225 25.8466 618.239Z" fill="url(#paint22_radial_1_759)"/>
<path d="M23.7117 618.243C16.7336 611.226 11.5543 605.051 12.1455 604.465C12.7344 603.871 18.8697 609.08 25.8466 616.097C32.8224 623.112 38.0017 629.279 37.4105 629.871C36.8216 630.466 30.6863 625.256 23.7117 618.243Z" fill="url(#paint23_radial_1_759)"/>
<path d="M38.301 617.169C38.301 624.669 32.2574 630.746 24.7977 630.746C17.3428 630.746 11.2969 624.669 11.2969 617.169C11.2969 609.672 17.3428 603.592 24.7977 603.592C32.2562 603.592 38.301 609.672 38.301 617.169Z" fill="url(#paint24_radial_1_759)"/>
<defs>
<radialGradient id="paint0_radial_1_759" cx="0" cy="0" r="1" gradientUnits="userSpaceOnUse" gradientTransform="translate(24.7744 24.4193) scale(2.01449 23.994)">
<stop stop-color="white"/>
<stop offset="0.2229" stop-color="#B3B3B3"/>
<stop offset="0.4308" stop-color="#737373"/>
<stop offset="0.6182" stop-color="#414141"/>
<stop offset="0.7815" stop-color="#1E1E1E"/>
<stop offset="0.9143" stop-color="#080808"/>
<stop offset="1"/>
</radialGradient>
<radialGradient id="paint1_radial_1_759" cx="0" cy="0" r="1" gradientUnits="userSpaceOnUse" gradientTransform="translate(24.7773 24.4188) rotate(90) scale(2.0257 23.8601)">
<stop stop-color="white"/>
<stop offset="0.2229" stop-color="#B3B3B3"/>
<stop offset="0.4308" stop-color="#737373"/>
<stop offset="0.6182" stop-color="#414141"/>
<stop offset="0.7815" stop-color="#1E1E1E"/>
<stop offset="0.9143" stop-color="#080808"/>
<stop offset="1"/>
</radialGradient>
<radialGradient id="paint2_radial_1_759" cx="0" cy="0" r="1" gradientUnits="userSpaceOnUse" gradientTransform="translate(24.7777 24.4179) rotate(45.1596) scale(1.51318 17.9176)">
<stop stop-color="white"/>
<stop offset="0.2229" stop-color="#B3B3B3"/>
<stop offset="0.4308" stop-color="#737373"/>
<stop offset="0.6182" stop-color="#414141"/>
<stop offset="0.7815" stop-color="#1E1E1E"/>
<stop offset="0.9143" stop-color="#080808"/>
<stop offset="1"/>
</radialGradient>
<radialGradient id="paint3_radial_1_759" cx="0" cy="0" r="1" gradientUnits="userSpaceOnUse" gradientTransform="translate(24.7776 24.4185) rotate(134.84) scale(1.51318 17.9176)">
<stop stop-color="white"/>
<stop offset="0.2229" stop-color="#B3B3B3"/>
<stop offset="0.4308" stop-color="#737373"/>
<stop offset="0.6182" stop-color="#414141"/>
<stop offset="0.7815" stop-color="#1E1E1E"/>
<stop offset="0.9143" stop-color="#080808"/>
<stop offset="1"/>
</radialGradient>
<radialGradient id="paint4_radial_1_759" cx="0" cy="0" r="1" gradientUnits="userSpaceOnUse" gradientTransform="translate(24.7982 24.4198) scale(13.5019 13.5774)">
<stop stop-color="white"/>
<stop offset="0.2229" stop-color="#B3B3B3"/>
<stop offset="0.4308" stop-color="#737373"/>
<stop offset="0.6182" stop-color="#414141"/>
<stop offset="0.7815" stop-color="#1E1E1E"/>
<stop offset="0.9143" stop-color="#080808"/>
<stop offset="1"/>
</radialGradient>
<radialGradient id="paint5_radial_1_759" cx="0" cy="0" r="1" gradientUnits="userSpaceOnUse" gradientTransform="translate(24.7744 172.417) scale(2.01449 23.994)">
<stop stop-color="white"/>
<stop offset="0.2229" stop-color="#B3B3B3"/>
<stop offset="0.4308" stop-color="#737373"/>
<stop offset="0.6182" stop-color="#414141"/>
<stop offset="0.7815" stop-color="#1E1E1E"/>
<stop offset="0.9143" stop-color="#080808"/>
<stop offset="1"/>
</radialGradient>
<radialGradient id="paint6_radial_1_759" cx="0" cy="0" r="1" gradientUnits="userSpaceOnUse" gradientTransform="translate(24.7773 172.418) rotate(90) scale(2.0257 23.8601)">
<stop stop-color="white"/>
<stop offset="0.2229" stop-color="#B3B3B3"/>
<stop offset="0.4308" stop-color="#737373"/>
<stop offset="0.6182" stop-color="#414141"/>
<stop offset="0.7815" stop-color="#1E1E1E"/>
<stop offset="0.9143" stop-color="#080808"/>
<stop offset="1"/>
</radialGradient>
<radialGradient id="paint7_radial_1_759" cx="0" cy="0" r="1" gradientUnits="userSpaceOnUse" gradientTransform="translate(24.7776 172.417) rotate(45.1596) scale(1.51318 17.9176)">
<stop stop-color="white"/>
<stop offset="0.2229" stop-color="#B3B3B3"/>
<stop offset="0.4308" stop-color="#737373"/>
<stop offset="0.6182" stop-color="#414141"/>
<stop offset="0.7815" stop-color="#1E1E1E"/>
<stop offset="0.9143" stop-color="#080808"/>
<stop offset="1"/>
</radialGradient>
<radialGradient id="paint8_radial_1_759" cx="0" cy="0" r="1" gradientUnits="userSpaceOnUse" gradientTransform="translate(24.7775 172.418) rotate(134.84) scale(1.51318 17.9176)">
<stop stop-color="white"/>
<stop offset="0.2229" stop-color="#B3B3B3"/>
<stop offset="0.4308" stop-color="#737373"/>
<stop offset="0.6182" stop-color="#414141"/>
<stop offset="0.7815" stop-color="#1E1E1E"/>
<stop offset="0.9143" stop-color="#080808"/>
<stop offset="1"/>
</radialGradient>
<radialGradient id="paint9_radial_1_759" cx="0" cy="0" r="1" gradientUnits="userSpaceOnUse" gradientTransform="translate(24.7982 172.418) scale(13.5019 13.5774)">
<stop stop-color="white"/>
<stop offset="0.2229" stop-color="#B3B3B3"/>
<stop offset="0.4308" stop-color="#737373"/>
<stop offset="0.6182" stop-color="#414141"/>
<stop offset="0.7815" stop-color="#1E1E1E"/>
<stop offset="0.9143" stop-color="#080808"/>
<stop offset="1"/>
</radialGradient>
<radialGradient id="paint10_radial_1_759" cx="0" cy="0" r="1" gradientUnits="userSpaceOnUse" gradientTransform="translate(24.7744 320.917) scale(2.01449 23.994)">
<stop stop-color="white"/>
<stop offset="0.2229" stop-color="#B3B3B3"/>
<stop offset="0.4308" stop-color="#737373"/>
<stop offset="0.6182" stop-color="#414141"/>
<stop offset="0.7815" stop-color="#1E1E1E"/>
<stop offset="0.9143" stop-color="#080808"/>
<stop offset="1"/>
</radialGradient>
<radialGradient id="paint11_radial_1_759" cx="0" cy="0" r="1" gradientUnits="userSpaceOnUse" gradientTransform="translate(24.7773 320.918) rotate(90) scale(2.0257 23.8601)">
<stop stop-color="white"/>
<stop offset="0.2229" stop-color="#B3B3B3"/>
<stop offset="0.4308" stop-color="#737373"/>
<stop offset="0.6182" stop-color="#414141"/>
<stop offset="0.7815" stop-color="#1E1E1E"/>
<stop offset="0.9143" stop-color="#080808"/>
<stop offset="1"/>
</radialGradient>
<radialGradient id="paint12_radial_1_759" cx="0" cy="0" r="1" gradientUnits="userSpaceOnUse" gradientTransform="translate(24.7777 320.917) rotate(45.1596) scale(1.51318 17.9176)">
<stop stop-color="white"/>
<stop offset="0.2229" stop-color="#B3B3B3"/>
<stop offset="0.4308" stop-color="#737373"/>
<stop offset="0.6182" stop-color="#414141"/>
<stop offset="0.7815" stop-color="#1E1E1E"/>
<stop offset="0.9143" stop-color="#080808"/>
<stop offset="1"/>
</radialGradient>
<radialGradient id="paint13_radial_1_759" cx="0" cy="0" r="1" gradientUnits="userSpaceOnUse" gradientTransform="translate(24.7775 320.917) rotate(134.84) scale(1.51318 17.9176)">
<stop stop-color="white"/>
<stop offset="0.2229" stop-color="#B3B3B3"/>
<stop offset="0.4308" stop-color="#737373"/>
<stop offset="0.6182" stop-color="#414141"/>
<stop offset="0.7815" stop-color="#1E1E1E"/>
<stop offset="0.9143" stop-color="#080808"/>
<stop offset="1"/>
</radialGradient>
<radialGradient id="paint14_radial_1_759" cx="0" cy="0" r="1" gradientUnits="userSpaceOnUse" gradientTransform="translate(24.7982 320.918) scale(13.5019 13.5774)">
<stop stop-color="white"/>
<stop offset="0.2229" stop-color="#B3B3B3"/>
<stop offset="0.4308" stop-color="#737373"/>
<stop offset="0.6182" stop-color="#414141"/>
<stop offset="0.7815" stop-color="#1E1E1E"/>
<stop offset="0.9143" stop-color="#080808"/>
<stop offset="1"/>
</radialGradient>
<radialGradient id="paint15_radial_1_759" cx="0" cy="0" r="1" gradientUnits="userSpaceOnUse" gradientTransform="translate(24.7744 453.669) scale(2.01449 23.994)">
<stop stop-color="white"/>
<stop offset="0.2229" stop-color="#B3B3B3"/>
<stop offset="0.4308" stop-color="#737373"/>
<stop offset="0.6182" stop-color="#414141"/>
<stop offset="0.7815" stop-color="#1E1E1E"/>
<stop offset="0.9143" stop-color="#080808"/>
<stop offset="1"/>
</radialGradient>
<radialGradient id="paint16_radial_1_759" cx="0" cy="0" r="1" gradientUnits="userSpaceOnUse" gradientTransform="translate(24.7773 453.669) rotate(90) scale(2.0257 23.8601)">
<stop stop-color="white"/>
<stop offset="0.2229" stop-color="#B3B3B3"/>
<stop offset="0.4308" stop-color="#737373"/>
<stop offset="0.6182" stop-color="#414141"/>
<stop offset="0.7815" stop-color="#1E1E1E"/>
<stop offset="0.9143" stop-color="#080808"/>
<stop offset="1"/>
</radialGradient>
<radialGradient id="paint17_radial_1_759" cx="0" cy="0" r="1" gradientUnits="userSpaceOnUse" gradientTransform="translate(24.7777 453.669) rotate(45.1596) scale(1.51318 17.9176)">
<stop stop-color="white"/>
<stop offset="0.2229" stop-color="#B3B3B3"/>
<stop offset="0.4308" stop-color="#737373"/>
<stop offset="0.6182" stop-color="#414141"/>
<stop offset="0.7815" stop-color="#1E1E1E"/>
<stop offset="0.9143" stop-color="#080808"/>
<stop offset="1"/>
</radialGradient>
<radialGradient id="paint18_radial_1_759" cx="0" cy="0" r="1" gradientUnits="userSpaceOnUse" gradientTransform="translate(24.7776 453.669) rotate(134.84) scale(1.51318 17.9176)">
<stop stop-color="white"/>
<stop offset="0.2229" stop-color="#B3B3B3"/>
<stop offset="0.4308" stop-color="#737373"/>
<stop offset="0.6182" stop-color="#414141"/>
<stop offset="0.7815" stop-color="#1E1E1E"/>
<stop offset="0.9143" stop-color="#080808"/>
<stop offset="1"/>
</radialGradient>
<radialGradient id="paint19_radial_1_759" cx="0" cy="0" r="1" gradientUnits="userSpaceOnUse" gradientTransform="translate(24.7982 453.67) scale(13.5019 13.5774)">
<stop stop-color="white"/>
<stop offset="0.2229" stop-color="#B3B3B3"/>
<stop offset="0.4308" stop-color="#737373"/>
<stop offset="0.6182" stop-color="#414141"/>
<stop offset="0.7815" stop-color="#1E1E1E"/>
<stop offset="0.9143" stop-color="#080808"/>
<stop offset="1"/>
</radialGradient>
<radialGradient id="paint20_radial_1_759" cx="0" cy="0" r="1" gradientUnits="userSpaceOnUse" gradientTransform="translate(24.7744 617.169) scale(2.01449 23.994)">
<stop stop-color="white"/>
<stop offset="0.2229" stop-color="#B3B3B3"/>
<stop offset="0.4308" stop-color="#737373"/>
<stop offset="0.6182" stop-color="#414141"/>
<stop offset="0.7815" stop-color="#1E1E1E"/>
<stop offset="0.9143" stop-color="#080808"/>
<stop offset="1"/>
</radialGradient>
<radialGradient id="paint21_radial_1_759" cx="0" cy="0" r="1" gradientUnits="userSpaceOnUse" gradientTransform="translate(24.7773 617.169) rotate(90) scale(2.0257 23.8601)">
<stop stop-color="white"/>
<stop offset="0.2229" stop-color="#B3B3B3"/>
<stop offset="0.4308" stop-color="#737373"/>
<stop offset="0.6182" stop-color="#414141"/>
<stop offset="0.7815" stop-color="#1E1E1E"/>
<stop offset="0.9143" stop-color="#080808"/>
<stop offset="1"/>
</radialGradient>
<radialGradient id="paint22_radial_1_759" cx="0" cy="0" r="1" gradientUnits="userSpaceOnUse" gradientTransform="translate(24.7777 617.168) rotate(45.1596) scale(1.51318 17.9176)">
<stop stop-color="white"/>
<stop offset="0.2229" stop-color="#B3B3B3"/>
<stop offset="0.4308" stop-color="#737373"/>
<stop offset="0.6182" stop-color="#414141"/>
<stop offset="0.7815" stop-color="#1E1E1E"/>
<stop offset="0.9143" stop-color="#080808"/>
<stop offset="1"/>
</radialGradient>
<radialGradient id="paint23_radial_1_759" cx="0" cy="0" r="1" gradientUnits="userSpaceOnUse" gradientTransform="translate(24.7776 617.168) rotate(134.84) scale(1.51318 17.9176)">
<stop stop-color="white"/>
<stop offset="0.2229" stop-color="#B3B3B3"/>
<stop offset="0.4308" stop-color="#737373"/>
<stop offset="0.6182" stop-color="#414141"/>
<stop offset="0.7815" stop-color="#1E1E1E"/>
<stop offset="0.9143" stop-color="#080808"/>
<stop offset="1"/>
</radialGradient>
<radialGradient id="paint24_radial_1_759" cx="0" cy="0" r="1" gradientUnits="userSpaceOnUse" gradientTransform="translate(24.7982 617.17) scale(13.5019 13.5774)">
<stop stop-color="white"/>
<stop offset="0.2229" stop-color="#B3B3B3"/>
<stop offset="0.4308" stop-color="#737373"/>
<stop offset="0.6182" stop-color="#414141"/>
<stop offset="0.7815" stop-color="#1E1E1E"/>
<stop offset="0.9143" stop-color="#080808"/>
<stop offset="1"/>
</radialGradient>
</defs>
</svg>
