<svg width="1707" height="1010" viewBox="0 0 1707 1010" fill="none" xmlns="http://www.w3.org/2000/svg">
<path d="M336.247 547.014C336.247 579.113 334.047 605.14 331.344 605.14C328.639 605.14 326.441 579.113 326.441 547.014C326.441 514.914 328.642 488.89 331.344 488.89C334.047 488.887 336.247 514.914 336.247 547.014Z" fill="url(#paint0_radial_7_3947)"/>
<path d="M331.344 551.917C299.242 551.917 273.227 549.716 273.227 547.014C273.227 544.308 299.245 542.111 331.344 542.111C363.441 542.111 389.468 544.311 389.468 547.014C389.468 549.719 363.438 551.917 331.344 551.917Z" fill="url(#paint1_radial_7_3947)"/>
<path d="M333.944 549.609C316.951 566.602 302.013 579.218 300.579 577.778C299.139 576.344 311.755 561.406 328.745 544.413C345.732 527.426 360.67 514.813 362.104 516.253C363.544 517.672 350.931 532.622 333.944 549.609Z" fill="url(#paint2_radial_7_3947)"/>
<path d="M328.745 549.615C311.752 532.622 299.139 517.669 300.579 516.25C302.013 514.81 316.954 527.426 333.944 544.419C350.931 561.406 363.544 576.341 362.104 577.775C360.67 579.218 345.732 566.602 328.745 549.615Z" fill="url(#paint3_radial_7_3947)"/>
<path d="M364.222 547.014C364.222 565.177 349.504 579.894 331.338 579.894C313.184 579.894 298.461 565.177 298.461 547.014C298.461 528.859 313.184 514.136 331.338 514.136C349.501 514.136 364.222 528.859 364.222 547.014Z" fill="url(#paint4_radial_7_3947)"/>
<path d="M439.437 330.822C439.437 362.922 437.236 388.946 434.534 388.946C431.828 388.946 429.631 362.919 429.631 330.822C429.631 298.723 431.831 272.699 434.534 272.699C437.236 272.699 439.437 298.726 439.437 330.822Z" fill="url(#paint5_radial_7_3947)"/>
<path d="M434.53 335.728C402.427 335.728 376.412 333.528 376.412 330.825C376.412 328.12 402.43 325.922 434.53 325.922C466.626 325.922 492.653 328.123 492.653 330.825C492.656 333.528 466.626 335.728 434.53 335.728Z" fill="url(#paint6_radial_7_3947)"/>
<path d="M437.132 333.417C420.138 350.414 405.2 363.026 403.766 361.587C402.327 360.153 414.942 345.215 431.933 328.221C448.92 311.234 463.858 298.621 465.292 300.061C466.732 301.48 454.116 316.43 437.132 333.417Z" fill="url(#paint7_radial_7_3947)"/>
<path d="M431.933 333.426C414.939 316.433 402.327 301.48 403.766 300.061C405.2 298.621 420.141 311.237 437.132 328.23C454.119 345.217 466.732 360.153 465.292 361.587C463.858 363.026 448.917 350.411 431.933 333.426Z" fill="url(#paint8_radial_7_3947)"/>
<path d="M467.409 330.822C467.409 348.985 452.692 363.703 434.526 363.703C416.372 363.703 401.648 348.985 401.648 330.822C401.648 312.668 416.372 297.945 434.526 297.945C452.689 297.945 467.409 312.668 467.409 330.822Z" fill="url(#paint9_radial_7_3947)"/>
<path d="M777.774 422.874C777.774 454.974 775.573 480.998 772.871 480.998C770.168 480.998 767.965 454.971 767.965 422.874C767.965 390.777 770.165 364.751 772.871 364.751C775.576 364.751 777.774 390.777 777.774 422.874Z" fill="url(#paint10_radial_7_3947)"/>
<path d="M772.872 427.78C740.769 427.78 714.754 425.58 714.754 422.877C714.754 420.172 740.772 417.974 772.872 417.974C804.968 417.974 830.995 420.174 830.995 422.877C830.998 425.58 804.968 427.78 772.872 427.78Z" fill="url(#paint11_radial_7_3947)"/>
<path d="M775.471 425.469C758.481 442.463 743.54 455.078 742.106 453.638C740.666 452.204 753.282 437.266 770.272 420.273C787.26 403.286 802.198 390.673 803.632 392.113C805.072 393.532 792.456 408.482 775.471 425.469Z" fill="url(#paint12_radial_7_3947)"/>
<path d="M770.272 425.478C753.279 408.485 740.666 393.532 742.106 392.113C743.54 390.673 758.481 403.289 775.472 420.282C792.459 437.269 805.072 452.204 803.632 453.638C802.198 455.078 787.257 442.463 770.272 425.478Z" fill="url(#paint13_radial_7_3947)"/>
<path d="M805.749 422.874C805.749 441.037 791.032 455.755 772.866 455.755C754.711 455.755 739.988 441.037 739.988 422.874C739.988 404.72 754.711 389.997 772.866 389.997C791.032 389.997 805.749 404.72 805.749 422.874Z" fill="url(#paint14_radial_7_3947)"/>
<path d="M913.023 679.124C913.023 711.223 910.823 737.247 908.121 737.247C905.415 737.247 903.215 711.22 903.215 679.124C903.215 647.024 905.415 621 908.121 621C910.826 621 913.023 647.024 913.023 679.124Z" fill="url(#paint15_radial_7_3947)"/>
<path d="M908.121 684.026C876.018 684.026 850 681.826 850 679.124C850 676.418 876.018 674.221 908.121 674.221C940.217 674.221 966.244 676.421 966.244 679.124C966.244 681.829 940.217 684.026 908.121 684.026Z" fill="url(#paint16_radial_7_3947)"/>
<path d="M910.719 681.719C893.726 698.712 878.788 711.328 877.354 709.888C875.914 708.454 888.53 693.516 905.52 676.523C922.508 659.535 937.446 646.922 938.88 648.362C940.322 649.779 927.707 664.731 910.719 681.719Z" fill="url(#paint17_radial_7_3947)"/>
<path d="M905.52 681.725C888.53 664.731 875.914 649.779 877.354 648.359C878.788 646.92 893.729 659.535 910.719 676.528C927.707 693.516 940.319 708.451 938.88 709.885C937.446 711.328 922.508 698.712 905.52 681.725Z" fill="url(#paint18_radial_7_3947)"/>
<path d="M940.997 679.124C940.997 697.287 926.28 712.004 908.114 712.004C889.959 712.004 875.236 697.287 875.236 679.124C875.236 660.969 889.959 646.246 908.114 646.246C926.28 646.246 940.997 660.969 940.997 679.124Z" fill="url(#paint19_radial_7_3947)"/>
<path d="M1333.02 617.121C1333.02 649.223 1330.82 675.244 1328.12 675.244C1325.41 675.244 1323.21 649.22 1323.21 617.121C1323.21 585.021 1325.42 559 1328.12 559C1330.82 558.997 1333.02 585.021 1333.02 617.121Z" fill="url(#paint20_radial_7_3947)"/>
<path d="M1328.12 622.024C1296.02 622.024 1270 619.823 1270 617.121C1270 614.415 1296.02 612.218 1328.12 612.218C1360.21 612.218 1386.24 614.418 1386.24 617.121C1386.24 619.826 1360.21 622.024 1328.12 622.024Z" fill="url(#paint21_radial_7_3947)"/>
<path d="M1330.72 619.716C1313.73 636.709 1298.79 649.322 1297.36 647.882C1295.92 646.448 1308.53 631.513 1325.52 614.517C1342.51 597.529 1357.45 584.92 1358.88 586.359C1360.32 587.779 1347.71 602.731 1330.72 619.716Z" fill="url(#paint22_radial_7_3947)"/>
<path d="M1325.52 619.722C1308.53 602.728 1295.92 587.779 1297.36 586.359C1298.79 584.92 1313.73 597.532 1330.72 614.529C1347.71 631.516 1360.32 646.448 1358.88 647.882C1357.45 649.325 1342.51 636.709 1325.52 619.722Z" fill="url(#paint23_radial_7_3947)"/>
<path d="M1361 617.121C1361 635.286 1346.28 650.004 1328.11 650.004C1309.96 650.004 1295.24 635.286 1295.24 617.121C1295.24 598.966 1309.96 584.246 1328.11 584.246C1346.28 584.246 1361 598.966 1361 617.121Z" fill="url(#paint24_radial_7_3947)"/>
<path d="M377.183 502.48C376.409 504.375 374.207 505.256 372.329 504.388C371.942 504.209 371.601 503.968 371.312 503.681C370.56 502.934 369.685 502.322 368.704 501.922L368.439 501.814C367.429 501.402 366.347 501.198 365.256 501.206C364.74 501.211 364.213 501.103 363.71 500.871C362.032 500.095 361.21 498.139 361.83 496.397C362.238 495.249 363.159 494.444 364.235 494.135C365.78 493.692 367.127 492.728 368.101 491.448C369.231 489.961 371.012 488.635 373.5 489.65C375.961 490.655 376.303 492.856 376.076 494.715C375.879 496.326 376.216 497.953 377 499.373C377.509 500.295 377.612 501.43 377.183 502.48Z" fill="white"/>
<path d="M366.929 489.794C366.231 491.503 364.524 492.423 363.117 491.848C361.709 491.274 361.134 489.423 361.831 487.714C362.529 486.004 364.236 485.084 365.643 485.659C367.051 486.233 367.627 488.085 366.929 489.794Z" fill="white"/>
<path d="M374.472 485.014C373.774 486.723 372.067 487.643 370.66 487.069C369.252 486.494 368.677 484.643 369.374 482.934C370.072 481.225 371.779 480.306 373.187 480.88C374.594 481.454 375.17 483.306 374.472 485.014Z" fill="white"/>
<path d="M378.032 494.325C377.335 496.035 377.91 497.886 379.318 498.46C380.726 499.035 382.432 498.115 383.13 496.406C383.828 494.696 383.252 492.845 381.844 492.27C380.437 491.696 378.73 492.616 378.032 494.325Z" fill="white"/>
<path d="M375.988 485.634C375.29 487.343 375.865 489.194 377.273 489.768C378.681 490.343 380.387 489.423 381.085 487.714C381.783 486.005 381.207 484.154 379.8 483.579C378.392 483.005 376.685 483.924 375.988 485.634Z" fill="white"/>
<path d="M369.71 447.542C368.937 449.438 366.735 450.318 364.856 449.451C364.47 449.272 364.128 449.031 363.839 448.743C363.087 447.996 362.212 447.385 361.231 446.985L360.967 446.876C359.956 446.464 358.874 446.26 357.783 446.269C357.267 446.274 356.74 446.166 356.237 445.933C354.559 445.157 353.737 443.202 354.357 441.46C354.766 440.311 355.686 439.507 356.762 439.198C358.308 438.754 359.655 437.79 360.628 436.511C361.758 435.023 363.54 433.698 366.027 434.712C368.488 435.717 368.831 437.919 368.603 439.778C368.406 441.388 368.743 443.016 369.527 444.436C370.036 445.357 370.139 446.492 369.71 447.542Z" fill="white"/>
<path d="M359.456 434.856C358.758 436.565 357.052 437.485 355.644 436.911C354.236 436.336 353.661 434.485 354.359 432.776C355.056 431.067 356.763 430.147 358.17 430.721C359.578 431.296 360.154 433.148 359.456 434.856Z" fill="white"/>
<path d="M366.999 430.077C366.301 431.786 364.595 432.706 363.187 432.132C361.779 431.557 361.204 429.706 361.902 427.997C362.599 426.287 364.306 425.368 365.714 425.943C367.121 426.517 367.697 428.368 366.999 430.077Z" fill="white"/>
<path d="M370.56 439.387C369.862 441.097 370.437 442.948 371.845 443.523C373.253 444.097 374.959 443.177 375.657 441.468C376.355 439.759 375.779 437.908 374.372 437.333C372.964 436.759 371.257 437.679 370.56 439.387Z" fill="white"/>
<path d="M368.515 430.696C367.817 432.405 368.393 434.256 369.8 434.831C371.208 435.405 372.914 434.485 373.612 432.776C374.31 431.068 373.735 429.216 372.327 428.642C370.919 428.067 369.212 428.987 368.515 430.696Z" fill="white"/>
<path d="M393.323 396.472C392.55 398.367 390.348 399.248 388.47 398.381C388.083 398.202 387.742 397.96 387.452 397.673C386.701 396.926 385.826 396.314 384.845 395.914L384.58 395.806C383.57 395.394 382.487 395.19 381.396 395.198C380.88 395.203 380.354 395.095 379.85 394.863C378.172 394.087 377.35 392.131 377.97 390.389C378.379 389.241 379.3 388.437 380.375 388.127C381.921 387.684 383.268 386.72 384.241 385.44C385.371 383.953 387.153 382.627 389.64 383.642C392.102 384.647 392.444 386.848 392.217 388.708C392.019 390.318 392.356 391.945 393.141 393.365C393.65 394.287 393.752 395.422 393.323 396.472Z" fill="white"/>
<path d="M383.069 383.786C382.372 385.495 380.665 386.415 379.257 385.84C377.85 385.266 377.274 383.415 377.972 381.706C378.669 379.996 380.376 379.076 381.784 379.651C383.191 380.225 383.767 382.077 383.069 383.786Z" fill="white"/>
<path d="M390.612 379.007C389.914 380.716 388.208 381.636 386.8 381.061C385.393 380.487 384.817 378.636 385.515 376.927C386.212 375.217 387.919 374.298 389.327 374.872C390.735 375.447 391.31 377.298 390.612 379.007Z" fill="white"/>
<path d="M394.173 388.317C393.475 390.027 394.051 391.878 395.458 392.452C396.866 393.027 398.573 392.107 399.271 390.398C399.968 388.688 399.393 386.837 397.985 386.263C396.577 385.688 394.871 386.608 394.173 388.317Z" fill="white"/>
<path d="M392.128 379.626C391.43 381.335 392.006 383.186 393.413 383.76C394.821 384.335 396.528 383.415 397.226 381.706C397.923 379.997 397.348 378.146 395.94 377.572C394.533 376.997 392.826 377.916 392.128 379.626Z" fill="white"/>
<path d="M421.989 426.287C421.216 428.182 419.014 429.063 417.136 428.196C416.749 428.017 416.408 427.775 416.119 427.488C415.367 426.741 414.492 426.129 413.511 425.729L413.246 425.621C412.236 425.209 411.154 425.005 410.062 425.013C409.547 425.018 409.02 424.91 408.517 424.678C406.838 423.902 406.016 421.946 406.636 420.204C407.045 419.056 407.966 418.252 409.041 417.942C410.587 417.499 411.934 416.535 412.907 415.255C414.037 413.768 415.819 412.442 418.306 413.457C420.768 414.462 421.11 416.663 420.883 418.523C420.685 420.133 421.023 421.76 421.807 423.18C422.316 424.102 422.418 425.237 421.989 426.287Z" fill="white"/>
<path d="M411.735 413.601C411.038 415.31 409.331 416.23 407.923 415.655C406.516 415.081 405.94 413.23 406.638 411.521C407.336 409.811 409.042 408.891 410.45 409.466C411.858 410.04 412.433 411.892 411.735 413.601Z" fill="white"/>
<path d="M419.278 408.822C418.581 410.531 416.874 411.451 415.466 410.876C414.059 410.302 413.483 408.451 414.181 406.742C414.879 405.032 416.586 404.113 417.993 404.687C419.401 405.262 419.976 407.113 419.278 408.822Z" fill="white"/>
<path d="M422.839 418.132C422.141 419.842 422.717 421.693 424.125 422.267C425.532 422.842 427.239 421.922 427.937 420.213C428.634 418.503 428.059 416.652 426.651 416.078C425.243 415.503 423.537 416.423 422.839 418.132Z" fill="white"/>
<path d="M420.794 409.441C420.096 411.15 420.672 413.001 422.08 413.575C423.487 414.15 425.194 413.23 425.892 411.521C426.59 409.812 426.014 407.961 424.606 407.387C423.199 406.812 421.492 407.731 420.794 409.441Z" fill="white"/>
<path d="M487.572 358.105C485.557 357.744 484.237 355.774 484.693 353.756C484.787 353.34 484.952 352.956 485.173 352.614C485.746 351.723 486.162 350.739 486.349 349.696L486.399 349.415C486.592 348.341 486.565 347.24 486.329 346.174C486.217 345.671 486.213 345.133 486.335 344.593C486.744 342.79 488.485 341.578 490.318 341.82C491.526 341.981 492.505 342.713 493.032 343.701C493.788 345.12 495.012 346.236 496.466 346.921C498.156 347.716 499.825 349.182 499.351 351.826C498.882 354.443 496.8 355.237 494.935 355.403C493.319 355.545 491.797 356.215 490.572 357.278C489.777 357.968 488.689 358.305 487.572 358.105Z" fill="white"/>
<path d="M497.84 345.43C496.023 345.104 494.767 343.627 495.035 342.13C495.303 340.634 496.994 339.685 498.811 340.01C500.628 340.336 501.884 341.813 501.616 343.31C501.348 344.806 499.657 345.756 497.84 345.43Z" fill="white"/>
<path d="M504.088 351.81C502.271 351.484 501.015 350.007 501.283 348.51C501.551 347.014 503.242 346.065 505.059 346.391C506.876 346.716 508.131 348.194 507.863 349.69C507.595 351.187 505.905 352.136 504.088 351.81Z" fill="white"/>
<path d="M495.725 357.235C493.908 356.91 492.217 357.859 491.949 359.355C491.681 360.852 492.937 362.329 494.754 362.655C496.572 362.98 498.262 362.031 498.53 360.535C498.798 359.038 497.542 357.561 495.725 357.235Z" fill="white"/>
<path d="M503.799 353.423C501.982 353.097 500.292 354.046 500.024 355.542C499.755 357.039 501.011 358.516 502.828 358.842C504.645 359.168 506.335 358.219 506.603 356.722C506.872 355.226 505.617 353.748 503.799 353.423Z" fill="white"/>
<path d="M514.738 398.129C512.723 397.768 511.403 395.798 511.859 393.78C511.953 393.365 512.118 392.981 512.339 392.638C512.912 391.747 513.328 390.763 513.515 389.72L513.565 389.439C513.758 388.365 513.731 387.264 513.495 386.199C513.383 385.695 513.379 385.158 513.501 384.617C513.91 382.814 515.651 381.602 517.484 381.845C518.692 382.005 519.671 382.738 520.198 383.725C520.954 385.144 522.178 386.26 523.632 386.945C525.322 387.74 526.991 389.206 526.517 391.85C526.048 394.467 523.966 395.261 522.101 395.427C520.485 395.57 518.963 396.239 517.738 397.302C516.943 397.992 515.855 398.329 514.738 398.129Z" fill="white"/>
<path d="M525.006 385.454C523.189 385.128 521.933 383.651 522.201 382.154C522.469 380.658 524.16 379.709 525.977 380.035C527.794 380.36 529.05 381.837 528.782 383.334C528.514 384.83 526.823 385.78 525.006 385.454Z" fill="white"/>
<path d="M531.254 391.834C529.437 391.508 528.181 390.031 528.449 388.535C528.717 387.038 530.408 386.089 532.225 386.415C534.042 386.74 535.297 388.218 535.029 389.715C534.761 391.211 533.071 392.16 531.254 391.834Z" fill="white"/>
<path d="M522.891 397.259C521.074 396.934 519.383 397.883 519.115 399.38C518.847 400.876 520.103 402.353 521.92 402.679C523.738 403.005 525.428 402.056 525.696 400.559C525.964 399.063 524.708 397.585 522.891 397.259Z" fill="white"/>
<path d="M530.965 393.447C529.148 393.121 527.458 394.07 527.19 395.567C526.921 397.063 528.177 398.54 529.994 398.866C531.811 399.192 533.501 398.243 533.769 396.747C534.038 395.25 532.783 393.772 530.965 393.447Z" fill="white"/>
<path d="M556.98 368.707C554.965 368.346 553.645 366.376 554.101 364.359C554.195 363.943 554.36 363.559 554.581 363.216C555.155 362.325 555.57 361.342 555.757 360.299L555.807 360.017C556 358.943 555.973 357.842 555.737 356.777C555.625 356.274 555.621 355.736 555.743 355.195C556.152 353.392 557.893 352.18 559.726 352.423C560.934 352.583 561.913 353.316 562.44 354.303C563.196 355.722 564.42 356.839 565.874 357.524C567.565 358.319 569.233 359.784 568.759 362.429C568.29 365.046 566.208 365.839 564.343 366.005C562.727 366.148 561.205 366.817 559.98 367.881C559.185 368.571 558.097 368.908 556.98 368.707Z" fill="white"/>
<path d="M567.248 356.032C565.431 355.706 564.175 354.229 564.443 352.733C564.712 351.236 566.402 350.287 568.219 350.613C570.036 350.938 571.292 352.416 571.024 353.912C570.756 355.409 569.065 356.358 567.248 356.032Z" fill="white"/>
<path d="M573.496 362.413C571.679 362.087 570.423 360.609 570.691 359.113C570.96 357.616 572.65 356.667 574.467 356.993C576.284 357.319 577.539 358.796 577.271 360.293C577.003 361.789 575.313 362.738 573.496 362.413Z" fill="white"/>
<path d="M565.134 367.838C563.316 367.512 561.626 368.461 561.357 369.958C561.089 371.454 562.345 372.932 564.162 373.257C565.98 373.583 567.67 372.634 567.938 371.137C568.206 369.641 566.95 368.164 565.134 367.838Z" fill="white"/>
<path d="M573.207 364.025C571.39 363.699 569.7 364.648 569.432 366.145C569.164 367.642 570.419 369.119 572.236 369.445C574.053 369.771 575.743 368.822 576.012 367.325C576.28 365.829 575.025 364.351 573.207 364.025Z" fill="white"/>
<path d="M577.951 416.386C575.936 416.025 574.615 414.055 575.072 412.037C575.166 411.622 575.331 411.238 575.552 410.895C576.125 410.004 576.541 409.02 576.727 407.977L576.778 407.696C576.97 406.622 576.944 405.521 576.708 404.456C576.596 403.952 576.591 403.415 576.713 402.874C577.122 401.071 578.863 399.859 580.696 400.102C581.905 400.262 582.884 400.995 583.411 401.982C584.167 403.401 585.39 404.517 586.845 405.202C588.535 405.997 590.203 407.463 589.73 410.107C589.261 412.724 587.179 413.518 585.313 413.684C583.697 413.827 582.176 414.496 580.951 415.559C580.156 416.249 579.067 416.586 577.951 416.386Z" fill="white"/>
<path d="M588.219 403.711C586.402 403.385 585.146 401.908 585.414 400.411C585.682 398.915 587.372 397.966 589.189 398.292C591.007 398.617 592.263 400.094 591.995 401.591C591.727 403.087 590.035 404.037 588.219 403.711Z" fill="white"/>
<path d="M594.467 410.091C592.65 409.765 591.394 408.288 591.662 406.792C591.93 405.295 593.621 404.346 595.437 404.672C597.255 404.997 598.51 406.475 598.242 407.972C597.974 409.468 596.283 410.417 594.467 410.091Z" fill="white"/>
<path d="M586.104 415.517C584.287 415.191 582.596 416.14 582.328 417.637C582.06 419.133 583.316 420.61 585.133 420.936C586.95 421.262 588.641 420.313 588.909 418.816C589.177 417.32 587.921 415.842 586.104 415.517Z" fill="white"/>
<path d="M594.178 411.704C592.361 411.378 590.67 412.327 590.402 413.824C590.134 415.32 591.39 416.797 593.207 417.123C595.024 417.449 596.714 416.5 596.982 415.004C597.25 413.507 595.995 412.03 594.178 411.704Z" fill="white"/>
<path d="M630.119 397.615C628.104 397.254 626.783 395.284 627.24 393.266C627.334 392.851 627.499 392.467 627.72 392.124C628.293 391.233 628.709 390.25 628.895 389.207L628.946 388.925C629.139 387.851 629.112 386.75 628.876 385.685C628.764 385.181 628.759 384.644 628.882 384.103C629.29 382.3 631.032 381.088 632.864 381.331C634.073 381.491 635.052 382.224 635.579 383.211C636.335 384.63 637.558 385.746 639.013 386.431C640.703 387.226 642.372 388.692 641.898 391.336C641.429 393.953 639.347 394.747 637.482 394.913C635.865 395.056 634.344 395.725 633.119 396.788C632.324 397.478 631.235 397.816 630.119 397.615Z" fill="white"/>
<path d="M640.387 384.94C638.57 384.614 637.314 383.137 637.582 381.64C637.85 380.144 639.541 379.195 641.357 379.521C643.175 379.846 644.431 381.323 644.163 382.82C643.895 384.316 642.204 385.266 640.387 384.94Z" fill="white"/>
<path d="M646.635 391.32C644.818 390.994 643.562 389.517 643.83 388.021C644.098 386.524 645.789 385.575 647.606 385.901C649.423 386.227 650.678 387.704 650.41 389.201C650.142 390.697 648.452 391.646 646.635 391.32Z" fill="white"/>
<path d="M638.272 396.746C636.455 396.42 634.764 397.369 634.496 398.866C634.228 400.362 635.484 401.839 637.301 402.165C639.118 402.491 640.809 401.542 641.077 400.045C641.345 398.549 640.089 397.071 638.272 396.746Z" fill="white"/>
<path d="M646.346 392.933C644.529 392.607 642.839 393.556 642.57 395.053C642.302 396.549 643.558 398.026 645.375 398.352C647.192 398.678 648.882 397.729 649.15 396.233C649.418 394.736 648.163 393.259 646.346 392.933Z" fill="white"/>
<path d="M661.814 444.31C659.799 443.949 658.479 441.979 658.935 439.961C659.029 439.546 659.194 439.162 659.415 438.819C659.989 437.928 660.404 436.945 660.591 435.902L660.641 435.62C660.834 434.546 660.807 433.445 660.571 432.38C660.459 431.876 660.455 431.339 660.577 430.798C660.986 428.995 662.727 427.783 664.56 428.026C665.768 428.186 666.747 428.919 667.274 429.906C668.03 431.325 669.254 432.441 670.708 433.126C672.399 433.921 674.067 435.387 673.593 438.031C673.124 440.648 671.042 441.442 669.177 441.608C667.561 441.751 666.039 442.42 664.814 443.484C664.019 444.173 662.931 444.511 661.814 444.31Z" fill="white"/>
<path d="M672.082 431.635C670.265 431.309 669.009 429.832 669.277 428.335C669.546 426.839 671.236 425.89 673.053 426.216C674.87 426.541 676.126 428.018 675.858 429.515C675.59 431.012 673.899 431.961 672.082 431.635Z" fill="white"/>
<path d="M678.33 438.015C676.513 437.689 675.257 436.212 675.525 434.716C675.794 433.219 677.484 432.27 679.301 432.596C681.118 432.922 682.374 434.399 682.105 435.896C681.837 437.392 680.147 438.341 678.33 438.015Z" fill="white"/>
<path d="M669.968 443.441C668.15 443.115 666.46 444.064 666.191 445.561C665.923 447.057 667.179 448.534 668.996 448.86C670.814 449.186 672.504 448.237 672.772 446.74C673.04 445.244 671.784 443.767 669.968 443.441Z" fill="white"/>
<path d="M678.041 439.628C676.224 439.302 674.534 440.251 674.266 441.748C673.998 443.244 675.253 444.722 677.07 445.047C678.887 445.373 680.577 444.424 680.846 442.928C681.114 441.431 679.859 439.954 678.041 439.628Z" fill="white"/>
<path d="M698.14 404.109C696.125 403.748 694.805 401.778 695.261 399.76C695.356 399.345 695.52 398.96 695.741 398.618C696.315 397.727 696.73 396.743 696.917 395.7L696.968 395.419C697.16 394.345 697.133 393.244 696.897 392.178C696.785 391.675 696.781 391.137 696.903 390.597C697.312 388.794 699.053 387.582 700.886 387.825C702.094 387.985 703.073 388.717 703.6 389.705C704.356 391.124 705.58 392.24 707.034 392.925C708.725 393.72 710.393 395.186 709.92 397.83C709.45 400.447 707.369 401.241 705.503 401.407C703.887 401.55 702.366 402.219 701.14 403.282C700.346 403.972 699.257 404.309 698.14 404.109Z" fill="white"/>
<path d="M708.408 391.434C706.591 391.108 705.335 389.631 705.604 388.134C705.872 386.638 707.562 385.689 709.379 386.015C711.197 386.34 712.452 387.817 712.184 389.314C711.916 390.81 710.225 391.76 708.408 391.434Z" fill="white"/>
<path d="M714.656 397.814C712.839 397.488 711.583 396.011 711.852 394.514C712.12 393.018 713.81 392.069 715.627 392.395C717.445 392.72 718.7 394.198 718.432 395.694C718.163 397.191 716.473 398.14 714.656 397.814Z" fill="white"/>
<path d="M706.294 403.239C704.476 402.914 702.786 403.863 702.518 405.359C702.25 406.856 703.505 408.333 705.322 408.659C707.14 408.984 708.83 408.035 709.098 406.539C709.366 405.042 708.111 403.565 706.294 403.239Z" fill="white"/>
<path d="M714.367 399.427C712.55 399.101 710.86 400.05 710.592 401.547C710.324 403.043 711.579 404.52 713.396 404.846C715.213 405.172 716.904 404.223 717.172 402.727C717.44 401.23 716.185 399.752 714.367 399.427Z" fill="white"/>
<path d="M971.442 662.323C969.43 662.702 967.496 661.329 967.206 659.28C967.147 658.858 967.165 658.441 967.249 658.042C967.469 657.005 967.509 655.939 967.313 654.897L967.26 654.616C967.059 653.544 966.643 652.524 966.044 651.612C965.761 651.181 965.566 650.68 965.488 650.131C965.23 648.3 966.428 646.549 968.227 646.125C969.414 645.846 970.589 646.184 971.432 646.919C972.643 647.978 974.183 648.587 975.786 648.711C977.648 648.854 979.728 649.632 980.225 652.272C980.715 654.885 979.051 656.366 977.366 657.184C975.906 657.891 974.721 659.057 973.953 660.486C973.455 661.413 972.557 662.115 971.442 662.323Z" fill="white"/>
<path d="M976.54 646.829C974.726 647.169 973.027 646.234 972.747 644.74C972.466 643.246 973.709 641.758 975.524 641.418C977.338 641.077 979.037 642.012 979.317 643.506C979.598 645.001 978.354 646.489 976.54 646.829Z" fill="white"/>
<path d="M984.646 650.575C982.831 650.916 981.133 649.981 980.852 648.486C980.572 646.992 981.815 645.505 983.629 645.164C985.444 644.823 987.142 645.759 987.422 647.253C987.703 648.748 986.46 650.235 984.646 650.575Z" fill="white"/>
<path d="M978.755 658.616C976.94 658.957 975.697 660.445 975.977 661.939C976.258 663.433 977.956 664.368 979.771 664.028C981.585 663.687 982.829 662.199 982.548 660.705C982.267 659.211 980.569 658.276 978.755 658.616Z" fill="white"/>
<path d="M984.948 652.186C983.133 652.526 981.89 654.013 982.171 655.508C982.451 657.002 984.15 657.937 985.964 657.597C987.778 657.256 989.021 655.769 988.741 654.275C988.46 652.781 986.762 651.845 984.948 652.186Z" fill="white"/>
<path d="M1011.05 690.095C1009.04 690.473 1007.1 689.1 1006.81 687.052C1006.75 686.63 1006.77 686.212 1006.86 685.814C1007.08 684.777 1007.12 683.71 1006.92 682.669L1006.87 682.388C1006.67 681.315 1006.25 680.296 1005.65 679.383C1005.37 678.952 1005.17 678.451 1005.1 677.903C1004.84 676.072 1006.03 674.321 1007.83 673.897C1009.02 673.618 1010.2 673.955 1011.04 674.691C1012.25 675.749 1013.79 676.358 1015.39 676.482C1017.26 676.625 1019.34 677.403 1019.83 680.043C1020.32 682.656 1018.66 684.138 1016.97 684.955C1015.51 685.662 1014.33 686.828 1013.56 688.257C1013.06 689.184 1012.16 689.886 1011.05 690.095Z" fill="white"/>
<path d="M1016.15 674.6C1014.33 674.941 1012.63 674.006 1012.35 672.511C1012.07 671.017 1013.32 669.53 1015.13 669.19C1016.95 668.848 1018.64 669.784 1018.92 671.278C1019.21 672.772 1017.96 674.26 1016.15 674.6Z" fill="white"/>
<path d="M1024.25 678.347C1022.44 678.687 1020.74 677.752 1020.46 676.258C1020.18 674.764 1021.42 673.276 1023.24 672.936C1025.05 672.595 1026.75 673.531 1027.03 675.025C1027.31 676.519 1026.07 678.006 1024.25 678.347Z" fill="white"/>
<path d="M1018.36 686.388C1016.55 686.729 1015.3 688.216 1015.58 689.71C1015.87 691.204 1017.56 692.14 1019.38 691.799C1021.19 691.458 1022.44 689.971 1022.16 688.477C1021.87 686.982 1020.18 686.047 1018.36 686.388Z" fill="white"/>
<path d="M1024.55 679.957C1022.74 680.298 1021.5 681.785 1021.78 683.279C1022.06 684.773 1023.76 685.708 1025.57 685.368C1027.39 685.028 1028.63 683.54 1028.35 682.046C1028.07 680.552 1026.37 679.616 1024.55 679.957Z" fill="white"/>
<path d="M1040.09 647.593C1038.08 647.971 1036.15 646.598 1035.86 644.55C1035.8 644.128 1035.82 643.71 1035.9 643.311C1036.12 642.275 1036.16 641.208 1035.96 640.166L1035.91 639.885C1035.71 638.813 1035.29 637.793 1034.69 636.881C1034.41 636.45 1034.22 635.949 1034.14 635.4C1033.88 633.57 1035.08 631.818 1036.88 631.395C1038.06 631.115 1039.24 631.453 1040.08 632.189C1041.29 633.247 1042.83 633.856 1044.44 633.98C1046.3 634.123 1048.38 634.901 1048.88 637.541C1049.37 640.154 1047.7 641.635 1046.02 642.453C1044.56 643.16 1043.37 644.326 1042.6 645.755C1042.11 646.682 1041.21 647.384 1040.09 647.593Z" fill="white"/>
<path d="M1045.19 632.098C1043.38 632.438 1041.68 631.503 1041.4 630.009C1041.12 628.515 1042.36 627.028 1044.17 626.687C1045.99 626.346 1047.69 627.281 1047.97 628.775C1048.25 630.27 1047 631.758 1045.19 632.098Z" fill="white"/>
<path d="M1053.3 635.844C1051.48 636.185 1049.78 635.25 1049.5 633.755C1049.22 632.261 1050.47 630.774 1052.28 630.434C1054.09 630.093 1055.79 631.028 1056.07 632.523C1056.35 634.017 1055.11 635.504 1053.3 635.844Z" fill="white"/>
<path d="M1047.41 643.885C1045.59 644.226 1044.35 645.714 1044.63 647.208C1044.91 648.702 1046.61 649.637 1048.42 649.297C1050.24 648.956 1051.48 647.468 1051.2 645.974C1050.92 644.48 1049.22 643.545 1047.41 643.885Z" fill="white"/>
<path d="M1053.6 637.455C1051.78 637.795 1050.54 639.283 1050.82 640.777C1051.1 642.271 1052.8 643.206 1054.61 642.866C1056.43 642.525 1057.67 641.038 1057.39 639.544C1057.11 638.05 1055.41 637.114 1053.6 637.455Z" fill="white"/>
<path d="M1076.62 684.72C1074.61 685.098 1072.68 683.725 1072.39 681.677C1072.33 681.255 1072.35 680.837 1072.43 680.439C1072.65 679.402 1072.69 678.335 1072.49 677.294L1072.44 677.013C1072.24 675.94 1071.82 674.921 1071.23 674.008C1070.94 673.578 1070.75 673.076 1070.67 672.528C1070.41 670.697 1071.61 668.946 1073.41 668.522C1074.6 668.243 1075.77 668.58 1076.61 669.316C1077.82 670.374 1079.36 670.983 1080.97 671.107C1082.83 671.25 1084.91 672.028 1085.41 674.668C1085.9 677.282 1084.23 678.763 1082.55 679.58C1081.09 680.287 1079.9 681.453 1079.13 682.882C1078.64 683.809 1077.74 684.511 1076.62 684.72Z" fill="white"/>
<path d="M1081.72 669.226C1079.91 669.566 1078.21 668.631 1077.93 667.137C1077.65 665.642 1078.89 664.155 1080.71 663.815C1082.52 663.474 1084.22 664.409 1084.5 665.903C1084.78 667.397 1083.54 668.885 1081.72 669.226Z" fill="white"/>
<path d="M1089.83 672.972C1088.01 673.312 1086.31 672.377 1086.03 670.883C1085.75 669.389 1087 667.901 1088.81 667.561C1090.63 667.22 1092.32 668.156 1092.6 669.65C1092.88 671.144 1091.64 672.631 1089.83 672.972Z" fill="white"/>
<path d="M1083.94 681.013C1082.12 681.354 1080.88 682.841 1081.16 684.335C1081.44 685.83 1083.14 686.765 1084.95 686.424C1086.77 686.083 1088.01 684.596 1087.73 683.102C1087.45 681.607 1085.75 680.672 1083.94 681.013Z" fill="white"/>
<path d="M1090.13 674.582C1088.31 674.923 1087.07 676.41 1087.35 677.904C1087.63 679.399 1089.33 680.334 1091.15 679.993C1092.96 679.653 1094.2 678.166 1093.92 676.671C1093.64 675.177 1091.94 674.241 1090.13 674.582Z" fill="white"/>
<path d="M1118.73 648.65C1116.72 649.028 1114.79 647.656 1114.5 645.607C1114.44 645.185 1114.45 644.768 1114.54 644.369C1114.76 643.332 1114.8 642.265 1114.6 641.224L1114.55 640.943C1114.35 639.871 1113.93 638.851 1113.33 637.938C1113.05 637.508 1112.85 637.007 1112.78 636.458C1112.52 634.627 1113.72 632.876 1115.52 632.452C1116.7 632.173 1117.88 632.51 1118.72 633.246C1119.93 634.304 1121.47 634.913 1123.08 635.037C1124.94 635.18 1127.02 635.958 1127.51 638.599C1128 641.212 1126.34 642.693 1124.65 643.51C1123.19 644.218 1122.01 645.383 1121.24 646.812C1120.74 647.74 1119.85 648.441 1118.73 648.65Z" fill="white"/>
<path d="M1123.83 633.156C1122.01 633.496 1120.32 632.561 1120.04 631.067C1119.76 629.572 1121 628.085 1122.81 627.745C1124.63 627.404 1126.33 628.339 1126.61 629.833C1126.89 631.327 1125.64 632.815 1123.83 633.156Z" fill="white"/>
<path d="M1131.93 636.902C1130.12 637.242 1128.42 636.307 1128.14 634.813C1127.86 633.319 1129.1 631.832 1130.92 631.491C1132.73 631.15 1134.43 632.086 1134.71 633.58C1134.99 635.074 1133.75 636.562 1131.93 636.902Z" fill="white"/>
<path d="M1126.04 644.943C1124.23 645.284 1122.99 646.771 1123.27 648.265C1123.55 649.76 1125.25 650.695 1127.06 650.354C1128.87 650.013 1130.12 648.526 1129.84 647.032C1129.56 645.538 1127.86 644.602 1126.04 644.943Z" fill="white"/>
<path d="M1132.24 638.513C1130.42 638.853 1129.18 640.34 1129.46 641.834C1129.74 643.329 1131.44 644.264 1133.25 643.923C1135.07 643.583 1136.31 642.096 1136.03 640.601C1135.75 639.107 1134.05 638.171 1132.24 638.513Z" fill="white"/>
<path d="M1164.94 681.05C1162.93 681.428 1160.99 680.056 1160.7 678.007C1160.64 677.585 1160.66 677.168 1160.75 676.769C1160.97 675.732 1161 674.665 1160.81 673.624L1160.76 673.343C1160.56 672.271 1160.14 671.251 1159.54 670.338C1159.26 669.908 1159.06 669.407 1158.98 668.858C1158.73 667.027 1159.92 665.276 1161.72 664.852C1162.91 664.573 1164.09 664.91 1164.93 665.646C1166.14 666.705 1167.68 667.314 1169.28 667.437C1171.14 667.581 1173.22 668.359 1173.72 670.999C1174.21 673.612 1172.55 675.093 1170.86 675.91C1169.4 676.618 1168.22 677.784 1167.45 679.212C1166.95 680.14 1166.05 680.841 1164.94 681.05Z" fill="white"/>
<path d="M1170.04 665.556C1168.22 665.896 1166.52 664.961 1166.24 663.467C1165.96 661.973 1167.21 660.485 1169.02 660.145C1170.83 659.804 1172.53 660.739 1172.81 662.233C1173.09 663.727 1171.85 665.215 1170.04 665.556Z" fill="white"/>
<path d="M1178.14 669.302C1176.33 669.642 1174.63 668.707 1174.35 667.213C1174.07 665.719 1175.31 664.232 1177.13 663.891C1178.94 663.55 1180.64 664.486 1180.92 665.98C1181.2 667.474 1179.96 668.962 1178.14 669.302Z" fill="white"/>
<path d="M1172.25 677.343C1170.44 677.684 1169.19 679.171 1169.47 680.666C1169.75 682.16 1171.45 683.095 1173.27 682.754C1175.08 682.413 1176.32 680.926 1176.04 679.432C1175.76 677.938 1174.06 677.003 1172.25 677.343Z" fill="white"/>
<path d="M1178.44 670.913C1176.63 671.253 1175.39 672.74 1175.67 674.234C1175.95 675.729 1177.65 676.664 1179.46 676.323C1181.27 675.983 1182.52 674.496 1182.24 673.002C1181.96 671.507 1180.26 670.571 1178.44 670.913Z" fill="white"/>
<path d="M1232.11 668.478C1230.09 668.856 1228.16 667.484 1227.87 665.435C1227.81 665.013 1227.83 664.596 1227.91 664.197C1228.13 663.16 1228.17 662.093 1227.98 661.052L1227.92 660.771C1227.72 659.699 1227.31 658.679 1226.71 657.767C1226.42 657.336 1226.23 656.835 1226.15 656.286C1225.89 654.455 1227.09 652.704 1228.89 652.28C1230.08 652.001 1231.25 652.338 1232.1 653.074C1233.31 654.133 1234.85 654.742 1236.45 654.866C1238.31 655.009 1240.39 655.787 1240.89 658.427C1241.38 661.04 1239.71 662.521 1238.03 663.338C1236.57 664.046 1235.38 665.212 1234.62 666.641C1234.12 667.568 1233.22 668.269 1232.11 668.478Z" fill="white"/>
<path d="M1237.2 652.984C1235.39 653.324 1233.69 652.389 1233.41 650.895C1233.13 649.401 1234.37 647.913 1236.19 647.573C1238 647.232 1239.7 648.167 1239.98 649.661C1240.26 651.155 1239.02 652.643 1237.2 652.984Z" fill="white"/>
<path d="M1245.31 656.73C1243.5 657.071 1241.8 656.135 1241.52 654.641C1241.24 653.147 1242.48 651.66 1244.29 651.319C1246.11 650.978 1247.81 651.914 1248.09 653.408C1248.37 654.903 1247.12 656.39 1245.31 656.73Z" fill="white"/>
<path d="M1239.42 664.771C1237.6 665.112 1236.36 666.599 1236.64 668.094C1236.92 669.588 1238.62 670.523 1240.43 670.183C1242.25 669.842 1243.49 668.354 1243.21 666.86C1242.93 665.366 1241.23 664.431 1239.42 664.771Z" fill="white"/>
<path d="M1245.61 658.341C1243.8 658.681 1242.55 660.168 1242.83 661.663C1243.12 663.157 1244.81 664.092 1246.63 663.752C1248.44 663.411 1249.69 661.924 1249.4 660.43C1249.12 658.935 1247.43 658 1245.61 658.341Z" fill="white"/>
<path d="M1184.62 630.571C1182.61 630.949 1180.68 629.577 1180.39 627.528C1180.33 627.106 1180.35 626.689 1180.43 626.29C1180.65 625.253 1180.69 624.186 1180.49 623.145L1180.44 622.864C1180.24 621.792 1179.82 620.772 1179.23 619.859C1178.94 619.429 1178.75 618.928 1178.67 618.379C1178.41 616.548 1179.61 614.797 1181.41 614.373C1182.6 614.094 1183.77 614.431 1184.61 615.167C1185.82 616.226 1187.36 616.835 1188.97 616.958C1190.83 617.102 1192.91 617.88 1193.41 620.52C1193.9 623.133 1192.23 624.614 1190.55 625.431C1189.09 626.139 1187.9 627.305 1187.13 628.733C1186.64 629.661 1185.74 630.362 1184.62 630.571Z" fill="white"/>
<path d="M1189.72 615.077C1187.91 615.417 1186.21 614.482 1185.93 612.988C1185.65 611.494 1186.89 610.006 1188.71 609.666C1190.52 609.325 1192.22 610.26 1192.5 611.754C1192.78 613.248 1191.54 614.736 1189.72 615.077Z" fill="white"/>
<path d="M1197.83 618.823C1196.01 619.163 1194.31 618.228 1194.03 616.734C1193.75 615.24 1195 613.753 1196.81 613.412C1198.63 613.071 1200.32 614.007 1200.6 615.501C1200.88 616.995 1199.64 618.483 1197.83 618.823Z" fill="white"/>
<path d="M1191.94 626.864C1190.12 627.205 1188.88 628.692 1189.16 630.187C1189.44 631.681 1191.14 632.616 1192.95 632.275C1194.77 631.934 1196.01 630.447 1195.73 628.953C1195.45 627.459 1193.75 626.524 1191.94 626.864Z" fill="white"/>
<path d="M1198.13 620.434C1196.31 620.774 1195.07 622.261 1195.35 623.755C1195.63 625.25 1197.33 626.185 1199.15 625.844C1200.96 625.504 1202.2 624.017 1201.92 622.523C1201.64 621.028 1199.94 620.092 1198.13 620.434Z" fill="white"/>
<path d="M1244.11 617.478C1242.09 617.856 1240.16 616.484 1239.87 614.435C1239.81 614.013 1239.83 613.596 1239.91 613.197C1240.13 612.16 1240.17 611.093 1239.98 610.052L1239.92 609.771C1239.72 608.699 1239.31 607.679 1238.71 606.767C1238.42 606.336 1238.23 605.835 1238.15 605.286C1237.89 603.455 1239.09 601.704 1240.89 601.28C1242.08 601.001 1243.25 601.338 1244.1 602.074C1245.31 603.133 1246.85 603.742 1248.45 603.866C1250.31 604.009 1252.39 604.787 1252.89 607.427C1253.38 610.04 1251.71 611.521 1250.03 612.338C1248.57 613.046 1247.38 614.212 1246.62 615.641C1246.12 616.568 1245.22 617.269 1244.11 617.478Z" fill="white"/>
<path d="M1249.2 601.984C1247.39 602.324 1245.69 601.389 1245.41 599.895C1245.13 598.401 1246.37 596.913 1248.19 596.573C1250 596.232 1251.7 597.167 1251.98 598.661C1252.26 600.155 1251.02 601.643 1249.2 601.984Z" fill="white"/>
<path d="M1257.31 605.73C1255.5 606.071 1253.8 605.135 1253.52 603.641C1253.24 602.147 1254.48 600.66 1256.29 600.319C1258.11 599.978 1259.81 600.914 1260.09 602.408C1260.37 603.903 1259.12 605.39 1257.31 605.73Z" fill="white"/>
<path d="M1251.42 613.771C1249.6 614.112 1248.36 615.599 1248.64 617.094C1248.92 618.588 1250.62 619.523 1252.43 619.183C1254.25 618.842 1255.49 617.354 1255.21 615.86C1254.93 614.366 1253.23 613.431 1251.42 613.771Z" fill="white"/>
<path d="M1257.61 607.341C1255.8 607.681 1254.55 609.168 1254.83 610.663C1255.12 612.157 1256.81 613.092 1258.63 612.752C1260.44 612.411 1261.69 610.924 1261.4 609.43C1261.12 607.935 1259.43 607 1257.61 607.341Z" fill="white"/>
<path d="M801.833 469.815C800.329 468.426 800.277 466.055 801.748 464.6C802.051 464.301 802.397 464.066 802.768 463.896C803.731 463.454 804.611 462.849 805.33 462.071L805.524 461.861C806.264 461.06 806.835 460.118 807.21 459.093C807.386 458.608 807.672 458.153 808.066 457.763C809.382 456.464 811.501 456.381 812.915 457.572C813.847 458.358 814.277 459.502 814.19 460.618C814.062 462.221 814.493 463.82 815.349 465.181C816.346 466.761 816.962 468.894 815.139 470.868C813.334 472.82 811.153 472.368 809.491 471.503C808.053 470.753 806.41 470.498 804.805 470.734C803.764 470.887 802.665 470.585 801.833 469.815Z" fill="white"/>
<path d="M817.31 464.664C815.955 463.411 815.692 461.49 816.724 460.373C817.756 459.257 819.691 459.367 821.047 460.621C822.403 461.873 822.666 463.794 821.634 464.911C820.602 466.028 818.666 465.917 817.31 464.664Z" fill="white"/>
<path d="M819.138 473.405C817.783 472.152 817.52 470.231 818.552 469.114C819.584 467.997 821.519 468.108 822.875 469.361C824.231 470.614 824.493 472.535 823.461 473.652C822.429 474.768 820.494 474.658 819.138 473.405Z" fill="white"/>
<path d="M809.171 473.473C807.814 472.22 805.879 472.109 804.847 473.226C803.815 474.342 804.078 476.263 805.433 477.516C806.79 478.769 808.725 478.88 809.757 477.763C810.789 476.647 810.526 474.726 809.171 473.473Z" fill="white"/>
<path d="M818.027 474.608C816.672 473.355 814.736 473.245 813.705 474.361C812.673 475.478 812.935 477.399 814.291 478.652C815.646 479.905 817.582 480.015 818.613 478.899C819.645 477.782 819.383 475.861 818.027 474.608Z" fill="white"/>
<path d="M803.17 518.17C801.667 516.781 801.615 514.41 803.086 512.955C803.389 512.656 803.735 512.421 804.106 512.251C805.069 511.809 805.949 511.204 806.667 510.426L806.862 510.216C807.602 509.415 808.173 508.473 808.548 507.448C808.724 506.963 809.01 506.508 809.404 506.118C810.72 504.819 812.839 504.735 814.253 505.927C815.185 506.713 815.615 507.857 815.528 508.973C815.4 510.576 815.83 512.175 816.687 513.536C817.683 515.116 818.3 517.249 816.477 519.223C814.672 521.175 812.491 520.723 810.829 519.858C809.391 519.108 807.748 518.853 806.143 519.089C805.102 519.242 804.003 518.94 803.17 518.17Z" fill="white"/>
<path d="M818.648 513.019C817.293 511.766 817.03 509.845 818.062 508.728C819.094 507.612 821.029 507.722 822.385 508.975C823.741 510.228 824.004 512.149 822.972 513.266C821.94 514.383 820.004 514.272 818.648 513.019Z" fill="white"/>
<path d="M820.476 521.76C819.121 520.507 818.858 518.586 819.89 517.469C820.922 516.352 822.857 516.463 824.213 517.716C825.569 518.969 825.831 520.89 824.799 522.007C823.767 523.123 821.832 523.013 820.476 521.76Z" fill="white"/>
<path d="M810.508 521.828C809.152 520.575 807.217 520.464 806.185 521.581C805.153 522.697 805.416 524.618 806.771 525.871C808.128 527.124 810.063 527.235 811.095 526.118C812.127 525.002 811.864 523.081 810.508 521.828Z" fill="white"/>
<path d="M819.365 522.963C818.01 521.71 816.074 521.599 815.042 522.716C814.011 523.833 814.273 525.754 815.629 527.007C816.984 528.26 818.919 528.37 819.951 527.254C820.983 526.137 820.721 524.216 819.365 522.963Z" fill="white"/>
<path d="M854.608 516.126C853.104 514.737 853.052 512.366 854.524 510.911C854.827 510.612 855.172 510.377 855.543 510.207C856.506 509.765 857.386 509.161 858.105 508.382L858.299 508.172C859.04 507.371 859.61 506.429 859.985 505.404C860.162 504.92 860.448 504.464 860.842 504.074C862.157 502.775 864.277 502.692 865.69 503.883C866.622 504.669 867.053 505.813 866.965 506.929C866.838 508.532 867.268 510.132 868.125 511.492C869.121 513.072 869.737 515.206 867.914 517.179C866.11 519.131 863.928 518.679 862.267 517.814C860.828 517.064 859.186 516.809 857.581 517.045C856.54 517.199 855.441 516.896 854.608 516.126Z" fill="white"/>
<path d="M870.086 510.975C868.73 509.722 868.468 507.801 869.499 506.685C870.531 505.568 872.467 505.679 873.822 506.932C875.178 508.185 875.441 510.106 874.409 511.222C873.377 512.339 871.441 512.228 870.086 510.975Z" fill="white"/>
<path d="M871.914 519.716C870.558 518.463 870.296 516.542 871.328 515.425C872.359 514.309 874.295 514.419 875.65 515.672C877.006 516.925 877.268 518.846 876.236 519.963C875.205 521.08 873.269 520.969 871.914 519.716Z" fill="white"/>
<path d="M861.946 519.784C860.59 518.531 858.654 518.42 857.622 519.537C856.591 520.654 856.853 522.575 858.209 523.828C859.565 525.081 861.5 525.191 862.532 524.075C863.564 522.958 863.301 521.037 861.946 519.784Z" fill="white"/>
<path d="M870.803 520.919C869.447 519.666 867.512 519.556 866.48 520.672C865.448 521.789 865.711 523.71 867.066 524.963C868.422 526.216 870.357 526.327 871.389 525.21C872.421 524.093 872.159 522.172 870.803 520.919Z" fill="white"/>
<path d="M846.604 567.594C845.1 566.204 845.049 563.834 846.52 562.379C846.823 562.08 847.169 561.845 847.539 561.675C848.502 561.233 849.382 560.628 850.101 559.85L850.295 559.64C851.036 558.839 851.606 557.897 851.981 556.872C852.158 556.387 852.444 555.932 852.838 555.542C854.153 554.243 856.273 554.159 857.687 555.351C858.619 556.136 859.049 557.281 858.961 558.397C858.834 560 859.264 561.599 860.121 562.96C861.117 564.54 861.733 566.673 859.91 568.646C858.106 570.599 855.924 570.147 854.263 569.282C852.824 568.532 851.182 568.277 849.577 568.513C848.536 568.666 847.437 568.364 846.604 567.594Z" fill="white"/>
<path d="M862.082 562.443C860.726 561.19 860.464 559.269 861.496 558.152C862.527 557.036 864.463 557.146 865.818 558.399C867.174 559.652 867.437 561.573 866.405 562.69C865.373 563.806 863.437 563.696 862.082 562.443Z" fill="white"/>
<path d="M863.91 571.183C862.554 569.93 862.292 568.009 863.324 566.893C864.355 565.776 866.291 565.887 867.646 567.14C869.003 568.393 869.264 570.314 868.233 571.43C867.201 572.547 865.265 572.436 863.91 571.183Z" fill="white"/>
<path d="M853.942 571.252C852.586 569.999 850.65 569.888 849.619 571.005C848.587 572.121 848.849 574.042 850.205 575.295C851.561 576.548 853.497 576.659 854.528 575.542C855.56 574.426 855.298 572.505 853.942 571.252Z" fill="white"/>
<path d="M862.799 572.387C861.443 571.134 859.508 571.023 858.476 572.14C857.444 573.256 857.707 575.177 859.062 576.43C860.418 577.683 862.353 577.794 863.385 576.677C864.417 575.561 864.155 573.64 862.799 572.387Z" fill="white"/>
<path d="M891.557 560.595C890.054 559.205 890.002 556.834 891.473 555.38C891.776 555.08 892.122 554.845 892.492 554.676C893.456 554.234 894.335 553.629 895.054 552.851L895.248 552.641C895.989 551.839 896.559 550.897 896.934 549.872C897.111 549.388 897.397 548.932 897.791 548.543C899.106 547.244 901.226 547.16 902.64 548.352C903.572 549.137 904.002 550.282 903.914 551.398C903.787 553 904.217 554.6 905.074 555.961C906.07 557.541 906.686 559.674 904.864 561.647C903.059 563.6 900.877 563.148 899.216 562.283C897.777 561.533 896.135 561.277 894.53 561.514C893.489 561.667 892.39 561.365 891.557 560.595Z" fill="white"/>
<path d="M907.035 555.444C905.679 554.19 905.417 552.27 906.449 551.153C907.48 550.036 909.416 550.147 910.771 551.4C912.128 552.653 912.39 554.574 911.358 555.691C910.327 556.807 908.39 556.697 907.035 555.444Z" fill="white"/>
<path d="M908.863 564.184C907.508 562.931 907.245 561.01 908.277 559.894C909.309 558.777 911.244 558.888 912.599 560.141C913.956 561.394 914.218 563.315 913.186 564.431C912.154 565.548 910.219 565.437 908.863 564.184Z" fill="white"/>
<path d="M898.895 564.252C897.539 562.999 895.604 562.889 894.572 564.005C893.54 565.122 893.803 567.043 895.158 568.296C896.514 569.549 898.45 569.66 899.481 568.543C900.513 567.426 900.251 565.505 898.895 564.252Z" fill="white"/>
<path d="M907.752 565.388C906.396 564.135 904.461 564.024 903.429 565.141C902.397 566.257 902.66 568.178 904.015 569.431C905.371 570.684 907.306 570.795 908.338 569.678C909.37 568.562 909.108 566.641 907.752 565.388Z" fill="white"/>
<path d="M872.557 606.595C871.054 605.205 871.002 602.834 872.473 601.38C872.776 601.08 873.122 600.845 873.492 600.676C874.456 600.234 875.335 599.629 876.054 598.851L876.248 598.641C876.989 597.839 877.559 596.897 877.934 595.872C878.111 595.388 878.397 594.932 878.791 594.543C880.106 593.244 882.226 593.16 883.64 594.352C884.572 595.137 885.002 596.282 884.914 597.398C884.787 599 885.217 600.6 886.074 601.961C887.07 603.541 887.687 605.674 885.864 607.647C884.059 609.6 881.877 609.148 880.216 608.283C878.777 607.533 877.135 607.277 875.53 607.514C874.489 607.667 873.39 607.365 872.557 606.595Z" fill="white"/>
<path d="M888.035 601.444C886.68 600.19 886.417 598.27 887.449 597.153C888.481 596.036 890.416 596.147 891.771 597.4C893.128 598.653 893.39 600.574 892.358 601.691C891.327 602.807 889.39 602.697 888.035 601.444Z" fill="white"/>
<path d="M889.863 610.184C888.508 608.931 888.245 607.01 889.277 605.894C890.309 604.777 892.244 604.888 893.599 606.141C894.956 607.394 895.218 609.315 894.186 610.431C893.154 611.548 891.219 611.437 889.863 610.184Z" fill="white"/>
<path d="M879.895 610.252C878.539 608.999 876.604 608.889 875.572 610.005C874.54 611.122 874.803 613.043 876.158 614.296C877.514 615.549 879.45 615.66 880.482 614.543C881.513 613.426 881.251 611.505 879.895 610.252Z" fill="white"/>
<path d="M888.752 611.388C887.396 610.135 885.461 610.024 884.429 611.141C883.397 612.257 883.66 614.178 885.015 615.431C886.371 616.684 888.306 616.795 889.338 615.678C890.37 614.562 890.108 612.641 888.752 611.388Z" fill="white"/>
<defs>
<radialGradient id="paint0_radial_7_3947" cx="0" cy="0" r="1" gradientUnits="userSpaceOnUse" gradientTransform="translate(331.343 547.014) scale(4.90573 58.106)">
<stop stop-color="white"/>
<stop offset="0.2229" stop-color="#B3B3B3"/>
<stop offset="0.4308" stop-color="#737373"/>
<stop offset="0.6182" stop-color="#414141"/>
<stop offset="0.7815" stop-color="#1E1E1E"/>
<stop offset="0.9143" stop-color="#080808"/>
<stop offset="1"/>
</radialGradient>
<radialGradient id="paint1_radial_7_3947" cx="0" cy="0" r="1" gradientUnits="userSpaceOnUse" gradientTransform="translate(331.346 547.014) rotate(90) scale(4.90563 58.1047)">
<stop stop-color="white"/>
<stop offset="0.2229" stop-color="#B3B3B3"/>
<stop offset="0.4308" stop-color="#737373"/>
<stop offset="0.6182" stop-color="#414141"/>
<stop offset="0.7815" stop-color="#1E1E1E"/>
<stop offset="0.9143" stop-color="#080808"/>
<stop offset="1"/>
</radialGradient>
<radialGradient id="paint2_radial_7_3947" cx="0" cy="0" r="1" gradientUnits="userSpaceOnUse" gradientTransform="translate(331.341 547.013) rotate(45) scale(3.67464 43.5123)">
<stop stop-color="white"/>
<stop offset="0.2229" stop-color="#B3B3B3"/>
<stop offset="0.4308" stop-color="#737373"/>
<stop offset="0.6182" stop-color="#414141"/>
<stop offset="0.7815" stop-color="#1E1E1E"/>
<stop offset="0.9143" stop-color="#080808"/>
<stop offset="1"/>
</radialGradient>
<radialGradient id="paint3_radial_7_3947" cx="0" cy="0" r="1" gradientUnits="userSpaceOnUse" gradientTransform="translate(331.341 547.015) rotate(135) scale(3.67464 43.5123)">
<stop stop-color="white"/>
<stop offset="0.2229" stop-color="#B3B3B3"/>
<stop offset="0.4308" stop-color="#737373"/>
<stop offset="0.6182" stop-color="#414141"/>
<stop offset="0.7815" stop-color="#1E1E1E"/>
<stop offset="0.9143" stop-color="#080808"/>
<stop offset="1"/>
</radialGradient>
<radialGradient id="paint4_radial_7_3947" cx="0" cy="0" r="1" gradientUnits="userSpaceOnUse" gradientTransform="translate(331.34 547.015) scale(32.8801 32.8801)">
<stop stop-color="white"/>
<stop offset="0.2229" stop-color="#B3B3B3"/>
<stop offset="0.4308" stop-color="#737373"/>
<stop offset="0.6182" stop-color="#414141"/>
<stop offset="0.7815" stop-color="#1E1E1E"/>
<stop offset="0.9143" stop-color="#080808"/>
<stop offset="1"/>
</radialGradient>
<radialGradient id="paint5_radial_7_3947" cx="0" cy="0" r="1" gradientUnits="userSpaceOnUse" gradientTransform="translate(434.532 330.823) scale(4.90572 58.1061)">
<stop stop-color="white"/>
<stop offset="0.2229" stop-color="#B3B3B3"/>
<stop offset="0.4308" stop-color="#737373"/>
<stop offset="0.6182" stop-color="#414141"/>
<stop offset="0.7815" stop-color="#1E1E1E"/>
<stop offset="0.9143" stop-color="#080808"/>
<stop offset="1"/>
</radialGradient>
<radialGradient id="paint6_radial_7_3947" cx="0" cy="0" r="1" gradientUnits="userSpaceOnUse" gradientTransform="translate(434.534 330.823) rotate(90) scale(4.90561 58.1047)">
<stop stop-color="white"/>
<stop offset="0.2229" stop-color="#B3B3B3"/>
<stop offset="0.4308" stop-color="#737373"/>
<stop offset="0.6182" stop-color="#414141"/>
<stop offset="0.7815" stop-color="#1E1E1E"/>
<stop offset="0.9143" stop-color="#080808"/>
<stop offset="1"/>
</radialGradient>
<radialGradient id="paint7_radial_7_3947" cx="0" cy="0" r="1" gradientUnits="userSpaceOnUse" gradientTransform="translate(434.529 330.822) rotate(45) scale(3.67464 43.5123)">
<stop stop-color="white"/>
<stop offset="0.2229" stop-color="#B3B3B3"/>
<stop offset="0.4308" stop-color="#737373"/>
<stop offset="0.6182" stop-color="#414141"/>
<stop offset="0.7815" stop-color="#1E1E1E"/>
<stop offset="0.9143" stop-color="#080808"/>
<stop offset="1"/>
</radialGradient>
<radialGradient id="paint8_radial_7_3947" cx="0" cy="0" r="1" gradientUnits="userSpaceOnUse" gradientTransform="translate(434.528 330.824) rotate(135) scale(3.67464 43.5123)">
<stop stop-color="white"/>
<stop offset="0.2229" stop-color="#B3B3B3"/>
<stop offset="0.4308" stop-color="#737373"/>
<stop offset="0.6182" stop-color="#414141"/>
<stop offset="0.7815" stop-color="#1E1E1E"/>
<stop offset="0.9143" stop-color="#080808"/>
<stop offset="1"/>
</radialGradient>
<radialGradient id="paint9_radial_7_3947" cx="0" cy="0" r="1" gradientUnits="userSpaceOnUse" gradientTransform="translate(434.527 330.825) scale(32.8801 32.8801)">
<stop stop-color="white"/>
<stop offset="0.2229" stop-color="#B3B3B3"/>
<stop offset="0.4308" stop-color="#737373"/>
<stop offset="0.6182" stop-color="#414141"/>
<stop offset="0.7815" stop-color="#1E1E1E"/>
<stop offset="0.9143" stop-color="#080808"/>
<stop offset="1"/>
</radialGradient>
<radialGradient id="paint10_radial_7_3947" cx="0" cy="0" r="1" gradientUnits="userSpaceOnUse" gradientTransform="translate(772.871 422.875) scale(4.90573 58.1061)">
<stop stop-color="white"/>
<stop offset="0.2229" stop-color="#B3B3B3"/>
<stop offset="0.4308" stop-color="#737373"/>
<stop offset="0.6182" stop-color="#414141"/>
<stop offset="0.7815" stop-color="#1E1E1E"/>
<stop offset="0.9143" stop-color="#080808"/>
<stop offset="1"/>
</radialGradient>
<radialGradient id="paint11_radial_7_3947" cx="0" cy="0" r="1" gradientUnits="userSpaceOnUse" gradientTransform="translate(772.875 422.875) rotate(90) scale(4.90566 58.1054)">
<stop stop-color="white"/>
<stop offset="0.2229" stop-color="#B3B3B3"/>
<stop offset="0.4308" stop-color="#737373"/>
<stop offset="0.6182" stop-color="#414141"/>
<stop offset="0.7815" stop-color="#1E1E1E"/>
<stop offset="0.9143" stop-color="#080808"/>
<stop offset="1"/>
</radialGradient>
<radialGradient id="paint12_radial_7_3947" cx="0" cy="0" r="1" gradientUnits="userSpaceOnUse" gradientTransform="translate(772.867 422.874) rotate(45) scale(3.67469 43.5129)">
<stop stop-color="white"/>
<stop offset="0.2229" stop-color="#B3B3B3"/>
<stop offset="0.4308" stop-color="#737373"/>
<stop offset="0.6182" stop-color="#414141"/>
<stop offset="0.7815" stop-color="#1E1E1E"/>
<stop offset="0.9143" stop-color="#080808"/>
<stop offset="1"/>
</radialGradient>
<radialGradient id="paint13_radial_7_3947" cx="0" cy="0" r="1" gradientUnits="userSpaceOnUse" gradientTransform="translate(772.867 422.876) rotate(135) scale(3.67469 43.5129)">
<stop stop-color="white"/>
<stop offset="0.2229" stop-color="#B3B3B3"/>
<stop offset="0.4308" stop-color="#737373"/>
<stop offset="0.6182" stop-color="#414141"/>
<stop offset="0.7815" stop-color="#1E1E1E"/>
<stop offset="0.9143" stop-color="#080808"/>
<stop offset="1"/>
</radialGradient>
<radialGradient id="paint14_radial_7_3947" cx="0" cy="0" r="1" gradientUnits="userSpaceOnUse" gradientTransform="translate(772.869 422.877) scale(32.8801 32.8801)">
<stop stop-color="white"/>
<stop offset="0.2229" stop-color="#B3B3B3"/>
<stop offset="0.4308" stop-color="#737373"/>
<stop offset="0.6182" stop-color="#414141"/>
<stop offset="0.7815" stop-color="#1E1E1E"/>
<stop offset="0.9143" stop-color="#080808"/>
<stop offset="1"/>
</radialGradient>
<radialGradient id="paint15_radial_7_3947" cx="0" cy="0" r="1" gradientUnits="userSpaceOnUse" gradientTransform="translate(908.12 679.123) scale(4.90573 58.106)">
<stop stop-color="white"/>
<stop offset="0.2229" stop-color="#B3B3B3"/>
<stop offset="0.4308" stop-color="#737373"/>
<stop offset="0.6182" stop-color="#414141"/>
<stop offset="0.7815" stop-color="#1E1E1E"/>
<stop offset="0.9143" stop-color="#080808"/>
<stop offset="1"/>
</radialGradient>
<radialGradient id="paint16_radial_7_3947" cx="0" cy="0" r="1" gradientUnits="userSpaceOnUse" gradientTransform="translate(908.123 679.123) rotate(90) scale(4.90561 58.1047)">
<stop stop-color="white"/>
<stop offset="0.2229" stop-color="#B3B3B3"/>
<stop offset="0.4308" stop-color="#737373"/>
<stop offset="0.6182" stop-color="#414141"/>
<stop offset="0.7815" stop-color="#1E1E1E"/>
<stop offset="0.9143" stop-color="#080808"/>
<stop offset="1"/>
</radialGradient>
<radialGradient id="paint17_radial_7_3947" cx="0" cy="0" r="1" gradientUnits="userSpaceOnUse" gradientTransform="translate(908.118 679.123) rotate(45) scale(3.67469 43.5129)">
<stop stop-color="white"/>
<stop offset="0.2229" stop-color="#B3B3B3"/>
<stop offset="0.4308" stop-color="#737373"/>
<stop offset="0.6182" stop-color="#414141"/>
<stop offset="0.7815" stop-color="#1E1E1E"/>
<stop offset="0.9143" stop-color="#080808"/>
<stop offset="1"/>
</radialGradient>
<radialGradient id="paint18_radial_7_3947" cx="0" cy="0" r="1" gradientUnits="userSpaceOnUse" gradientTransform="translate(908.117 679.124) rotate(135) scale(3.67469 43.5129)">
<stop stop-color="white"/>
<stop offset="0.2229" stop-color="#B3B3B3"/>
<stop offset="0.4308" stop-color="#737373"/>
<stop offset="0.6182" stop-color="#414141"/>
<stop offset="0.7815" stop-color="#1E1E1E"/>
<stop offset="0.9143" stop-color="#080808"/>
<stop offset="1"/>
</radialGradient>
<radialGradient id="paint19_radial_7_3947" cx="0" cy="0" r="1" gradientUnits="userSpaceOnUse" gradientTransform="translate(908.117 679.125) scale(32.8801 32.8801)">
<stop stop-color="white"/>
<stop offset="0.2229" stop-color="#B3B3B3"/>
<stop offset="0.4308" stop-color="#737373"/>
<stop offset="0.6182" stop-color="#414141"/>
<stop offset="0.7815" stop-color="#1E1E1E"/>
<stop offset="0.9143" stop-color="#080808"/>
<stop offset="1"/>
</radialGradient>
<radialGradient id="paint20_radial_7_3947" cx="0" cy="0" r="1" gradientUnits="userSpaceOnUse" gradientTransform="translate(1328.12 617.122) scale(4.90566 58.1054)">
<stop stop-color="white"/>
<stop offset="0.2229" stop-color="#B3B3B3"/>
<stop offset="0.4308" stop-color="#737373"/>
<stop offset="0.6182" stop-color="#414141"/>
<stop offset="0.7815" stop-color="#1E1E1E"/>
<stop offset="0.9143" stop-color="#080808"/>
<stop offset="1"/>
</radialGradient>
<radialGradient id="paint21_radial_7_3947" cx="0" cy="0" r="1" gradientUnits="userSpaceOnUse" gradientTransform="translate(1328.12 617.12) rotate(90) scale(4.90565 58.1047)">
<stop stop-color="white"/>
<stop offset="0.2229" stop-color="#B3B3B3"/>
<stop offset="0.4308" stop-color="#737373"/>
<stop offset="0.6182" stop-color="#414141"/>
<stop offset="0.7815" stop-color="#1E1E1E"/>
<stop offset="0.9143" stop-color="#080808"/>
<stop offset="1"/>
</radialGradient>
<radialGradient id="paint22_radial_7_3947" cx="0" cy="0" r="1" gradientUnits="userSpaceOnUse" gradientTransform="translate(1328.12 617.121) rotate(45) scale(3.6751 43.5177)">
<stop stop-color="white"/>
<stop offset="0.2229" stop-color="#B3B3B3"/>
<stop offset="0.4308" stop-color="#737373"/>
<stop offset="0.6182" stop-color="#414141"/>
<stop offset="0.7815" stop-color="#1E1E1E"/>
<stop offset="0.9143" stop-color="#080808"/>
<stop offset="1"/>
</radialGradient>
<radialGradient id="paint23_radial_7_3947" cx="0" cy="0" r="1" gradientUnits="userSpaceOnUse" gradientTransform="translate(1328.12 617.123) rotate(135) scale(3.67413 43.5062)">
<stop stop-color="white"/>
<stop offset="0.2229" stop-color="#B3B3B3"/>
<stop offset="0.4308" stop-color="#737373"/>
<stop offset="0.6182" stop-color="#414141"/>
<stop offset="0.7815" stop-color="#1E1E1E"/>
<stop offset="0.9143" stop-color="#080808"/>
<stop offset="1"/>
</radialGradient>
<radialGradient id="paint24_radial_7_3947" cx="0" cy="0" r="1" gradientUnits="userSpaceOnUse" gradientTransform="translate(1328.12 617.125) scale(32.8802 32.8801)">
<stop stop-color="white"/>
<stop offset="0.2229" stop-color="#B3B3B3"/>
<stop offset="0.4308" stop-color="#737373"/>
<stop offset="0.6182" stop-color="#414141"/>
<stop offset="0.7815" stop-color="#1E1E1E"/>
<stop offset="0.9143" stop-color="#080808"/>
<stop offset="1"/>
</radialGradient>
</defs>
</svg>
