<svg width="528" height="464" viewBox="0 0 528 464" fill="none" xmlns="http://www.w3.org/2000/svg">
<path d="M270.737 463.371C383.517 463.371 474.944 371.944 474.944 259.164C474.944 146.383 383.517 54.9565 270.737 54.9565C157.956 54.9565 66.5293 146.383 66.5293 259.164C66.5293 371.944 157.956 463.371 270.737 463.371Z" stroke="white" stroke-width="1.16339" stroke-miterlimit="10"/>
<path d="M269.588 380.023C336.971 380.023 391.596 325.399 391.596 258.015C391.596 190.632 336.971 136.007 269.588 136.007C202.205 136.007 147.58 190.632 147.58 258.015C147.58 325.399 202.205 380.023 269.588 380.023Z" stroke="white" stroke-width="1.16339" stroke-miterlimit="10"/>
<path d="M376 83.1831L410.544 40.1831H466" stroke="white" stroke-width="1.16339" stroke-miterlimit="10"/>
<path d="M452 164.727L470.544 146.183H526" stroke="white" stroke-width="1.16339" stroke-miterlimit="10"/>
<path d="M357.516 443.909L376.562 462.954H439.513" stroke="white" stroke-width="1.16339" stroke-miterlimit="10"/>
<path d="M183.512 443.909L164.466 462.954H101.515" stroke="white" stroke-width="1.16339" stroke-miterlimit="10"/>
<path d="M82.6614 182.019L58.3449 157.702H0" stroke="white" stroke-width="1.16339" stroke-miterlimit="10"/>
<path d="M173.767 79.4986L149.45 55.1821H91.1055" stroke="white" stroke-width="1.16339" stroke-miterlimit="10"/>
<path d="M4.72669 144.671C6.87069 143.071 8.56669 141.623 9.81469 140.327C11.0627 139.015 11.6867 137.791 11.6867 136.655C11.6867 136.271 11.5987 135.975 11.4227 135.767C11.2627 135.559 11.0467 135.455 10.7747 135.455C10.4547 135.455 10.1987 135.623 10.0067 135.959C9.83069 136.279 9.76669 136.775 9.81469 137.447H4.65469C4.70269 135.959 5.02269 134.735 5.61469 133.775C6.22269 132.815 7.00669 132.111 7.96669 131.663C8.92669 131.215 9.98269 130.991 11.1347 130.991C13.1827 130.991 14.6787 131.487 15.6227 132.479C16.5827 133.455 17.0627 134.711 17.0627 136.247C17.0627 137.863 16.5427 139.383 15.5027 140.807C14.4787 142.215 13.1907 143.407 11.6387 144.383H17.1347V148.679H4.72669V144.671ZM31.6644 136.055H24.7044V138.071C25.0084 137.799 25.4004 137.583 25.8804 137.423C26.3764 137.263 26.9284 137.183 27.5364 137.183C28.6244 137.183 29.5444 137.439 30.2964 137.951C31.0484 138.463 31.6084 139.151 31.9764 140.015C32.3444 140.863 32.5284 141.807 32.5284 142.847C32.5284 144.767 31.9844 146.263 30.8964 147.335C29.8244 148.391 28.3444 148.919 26.4564 148.919C25.0804 148.919 23.8884 148.679 22.8804 148.199C21.8884 147.719 21.1284 147.055 20.6004 146.207C20.0884 145.359 19.8484 144.391 19.8804 143.303H25.0644C25.0644 143.559 25.1524 143.799 25.3284 144.023C25.5044 144.247 25.7924 144.359 26.1924 144.359C26.5924 144.359 26.8884 144.215 27.0804 143.927C27.2724 143.639 27.3684 143.247 27.3684 142.751C27.3684 142.287 27.2564 141.935 27.0324 141.695C26.8244 141.455 26.5204 141.335 26.1204 141.335C25.7844 141.335 25.5284 141.415 25.3524 141.575C25.1764 141.735 25.0884 141.919 25.0884 142.127H19.9044V131.375H31.6644V136.055ZM33.9962 135.959C33.9962 134.551 34.3962 133.479 35.1962 132.743C35.9962 131.991 37.0442 131.615 38.3402 131.615C39.6202 131.615 40.6522 131.991 41.4362 132.743C42.2362 133.479 42.6362 134.551 42.6362 135.959C42.6362 137.367 42.2362 138.439 41.4362 139.175C40.6522 139.911 39.6202 140.279 38.3402 140.279C37.0442 140.279 35.9962 139.911 35.1962 139.175C34.3962 138.439 33.9962 137.367 33.9962 135.959ZM51.7802 131.855L42.8282 148.919H37.7402L46.6922 131.855H51.7802ZM38.2922 134.711C37.7482 134.711 37.4762 135.127 37.4762 135.959C37.4762 136.775 37.7482 137.183 38.2922 137.183C38.5802 137.183 38.7962 137.079 38.9402 136.871C39.1002 136.663 39.1802 136.359 39.1802 135.959C39.1802 135.543 39.1002 135.231 38.9402 135.023C38.7962 134.815 38.5802 134.711 38.2922 134.711ZM46.8842 144.815C46.8842 143.407 47.2842 142.335 48.0842 141.599C48.8842 140.847 49.9242 140.471 51.2042 140.471C52.5002 140.471 53.5402 140.847 54.3242 141.599C55.1082 142.335 55.5002 143.407 55.5002 144.815C55.5002 146.223 55.1082 147.303 54.3242 148.055C53.5402 148.791 52.5002 149.159 51.2042 149.159C49.9242 149.159 48.8842 148.791 48.0842 148.055C47.2842 147.303 46.8842 146.223 46.8842 144.815ZM51.1802 143.567C50.6202 143.567 50.3402 143.983 50.3402 144.815C50.3402 145.647 50.6202 146.063 51.1802 146.063C51.4522 146.063 51.6602 145.959 51.8042 145.751C51.9642 145.543 52.0442 145.231 52.0442 144.815C52.0442 144.415 51.9642 144.111 51.8042 143.903C51.6602 143.679 51.4522 143.567 51.1802 143.567Z" fill="white"/>
<path d="M97.9099 32.6834V27.6914H106.046V45.2354H100.454V32.6834H97.9099ZM108.024 36.2114C108.024 33.4434 108.608 31.2674 109.776 29.6834C110.96 28.0994 112.776 27.3074 115.224 27.3074C117.656 27.3074 119.464 28.1074 120.648 29.7074C121.832 31.2914 122.424 33.4594 122.424 36.2114C122.424 38.9794 121.832 41.1634 120.648 42.7634C119.464 44.3474 117.656 45.1394 115.224 45.1394C112.776 45.1394 110.96 44.3474 109.776 42.7634C108.608 41.1634 108.024 38.9794 108.024 36.2114ZM117.168 36.2114C117.168 34.9314 117.04 33.9714 116.784 33.3314C116.528 32.6754 116.008 32.3474 115.224 32.3474C114.424 32.3474 113.896 32.6754 113.64 33.3314C113.384 33.9714 113.256 34.9314 113.256 36.2114C113.256 37.5074 113.384 38.4834 113.64 39.1394C113.896 39.7794 114.424 40.0994 115.224 40.0994C116.008 40.0994 116.528 39.7794 116.784 39.1394C117.04 38.4834 117.168 37.5074 117.168 36.2114ZM123.65 32.2754C123.65 30.8674 124.05 29.7954 124.85 29.0594C125.65 28.3074 126.698 27.9314 127.994 27.9314C129.274 27.9314 130.306 28.3074 131.09 29.0594C131.89 29.7954 132.29 30.8674 132.29 32.2754C132.29 33.6834 131.89 34.7554 131.09 35.4914C130.306 36.2274 129.274 36.5954 127.994 36.5954C126.698 36.5954 125.65 36.2274 124.85 35.4914C124.05 34.7554 123.65 33.6834 123.65 32.2754ZM141.434 28.1714L132.482 45.2354H127.394L136.346 28.1714H141.434ZM127.946 31.0274C127.402 31.0274 127.13 31.4434 127.13 32.2754C127.13 33.0914 127.402 33.4994 127.946 33.4994C128.234 33.4994 128.45 33.3954 128.594 33.1874C128.754 32.9794 128.834 32.6754 128.834 32.2754C128.834 31.8594 128.754 31.5474 128.594 31.3394C128.45 31.1314 128.234 31.0274 127.946 31.0274ZM136.538 41.1314C136.538 39.7234 136.938 38.6514 137.738 37.9154C138.538 37.1634 139.578 36.7874 140.858 36.7874C142.154 36.7874 143.194 37.1634 143.978 37.9154C144.762 38.6514 145.154 39.7234 145.154 41.1314C145.154 42.5394 144.762 43.6194 143.978 44.3714C143.194 45.1074 142.154 45.4754 140.858 45.4754C139.578 45.4754 138.538 45.1074 137.738 44.3714C136.938 43.6194 136.538 42.5394 136.538 41.1314ZM140.834 39.8834C140.274 39.8834 139.994 40.2994 139.994 41.1314C139.994 41.9634 140.274 42.3794 140.834 42.3794C141.106 42.3794 141.314 42.2754 141.458 42.0674C141.618 41.8594 141.698 41.5474 141.698 41.1314C141.698 40.7314 141.618 40.4274 141.458 40.2194C141.314 39.9954 141.106 39.8834 140.834 39.8834Z" fill="white"/>
<path d="M238.856 57.3941L263.173 33.0776H321.518" stroke="white" stroke-width="1.16339" stroke-miterlimit="10"/>
<path d="M282.086 13.6165H275.126V15.6325C275.43 15.3605 275.822 15.1445 276.302 14.9845C276.798 14.8245 277.35 14.7445 277.958 14.7445C279.046 14.7445 279.966 15.0005 280.718 15.5125C281.47 16.0245 282.03 16.7125 282.398 17.5765C282.766 18.4245 282.95 19.3685 282.95 20.4085C282.95 22.3285 282.406 23.8245 281.318 24.8965C280.246 25.9525 278.766 26.4805 276.878 26.4805C275.502 26.4805 274.31 26.2405 273.302 25.7605C272.31 25.2805 271.55 24.6165 271.022 23.7685C270.51 22.9205 270.27 21.9525 270.302 20.8645H275.486C275.486 21.1205 275.574 21.3605 275.75 21.5845C275.926 21.8085 276.214 21.9205 276.614 21.9205C277.014 21.9205 277.31 21.7765 277.502 21.4885C277.694 21.2005 277.79 20.8085 277.79 20.3125C277.79 19.8485 277.678 19.4965 277.454 19.2565C277.246 19.0165 276.942 18.8965 276.542 18.8965C276.206 18.8965 275.95 18.9765 275.774 19.1365C275.598 19.2965 275.51 19.4805 275.51 19.6885H270.326V8.93646H282.086V13.6165ZM284.418 13.5205C284.418 12.1125 284.818 11.0405 285.618 10.3045C286.418 9.55246 287.466 9.17646 288.762 9.17646C290.042 9.17646 291.074 9.55246 291.858 10.3045C292.658 11.0405 293.058 12.1125 293.058 13.5205C293.058 14.9285 292.658 16.0005 291.858 16.7365C291.074 17.4725 290.042 17.8405 288.762 17.8405C287.466 17.8405 286.418 17.4725 285.618 16.7365C284.818 16.0005 284.418 14.9285 284.418 13.5205ZM302.202 9.41646L293.25 26.4805H288.162L297.114 9.41646H302.202ZM288.714 12.2725C288.17 12.2725 287.898 12.6885 287.898 13.5205C287.898 14.3365 288.17 14.7445 288.714 14.7445C289.002 14.7445 289.218 14.6405 289.362 14.4325C289.522 14.2245 289.602 13.9205 289.602 13.5205C289.602 13.1045 289.522 12.7925 289.362 12.5845C289.218 12.3765 289.002 12.2725 288.714 12.2725ZM297.306 22.3765C297.306 20.9685 297.706 19.8965 298.506 19.1605C299.306 18.4085 300.346 18.0325 301.626 18.0325C302.922 18.0325 303.962 18.4085 304.746 19.1605C305.53 19.8965 305.922 20.9685 305.922 22.3765C305.922 23.7845 305.53 24.8645 304.746 25.6165C303.962 26.3525 302.922 26.7205 301.626 26.7205C300.346 26.7205 299.306 26.3525 298.506 25.6165C297.706 24.8645 297.306 23.7845 297.306 22.3765ZM301.602 21.1285C301.042 21.1285 300.762 21.5445 300.762 22.3765C300.762 23.2085 301.042 23.6245 301.602 23.6245C301.874 23.6245 302.082 23.5205 302.226 23.3125C302.386 23.1045 302.466 22.7925 302.466 22.3765C302.466 21.9765 302.386 21.6725 302.226 21.4645C302.082 21.2405 301.874 21.1285 301.602 21.1285Z" fill="white"/>
<path d="M416.947 16.3987V11.4067H425.083V28.9507H419.491V16.3987H416.947ZM440.309 16.0867H433.349V18.1027C433.653 17.8307 434.045 17.6147 434.525 17.4547C435.021 17.2947 435.573 17.2147 436.181 17.2147C437.269 17.2147 438.189 17.4707 438.941 17.9827C439.693 18.4947 440.253 19.1827 440.621 20.0467C440.989 20.8947 441.173 21.8387 441.173 22.8787C441.173 24.7987 440.629 26.2947 439.541 27.3667C438.469 28.4227 436.989 28.9507 435.101 28.9507C433.725 28.9507 432.533 28.7107 431.525 28.2307C430.533 27.7507 429.773 27.0867 429.245 26.2387C428.733 25.3907 428.493 24.4227 428.525 23.3347H433.709C433.709 23.5907 433.797 23.8307 433.973 24.0547C434.149 24.2787 434.437 24.3907 434.837 24.3907C435.237 24.3907 435.533 24.2467 435.725 23.9587C435.917 23.6707 436.013 23.2787 436.013 22.7827C436.013 22.3187 435.901 21.9667 435.677 21.7267C435.469 21.4867 435.165 21.3667 434.765 21.3667C434.429 21.3667 434.173 21.4467 433.997 21.6067C433.821 21.7667 433.733 21.9507 433.733 22.1587H428.549V11.4067H440.309V16.0867ZM442.641 15.9907C442.641 14.5827 443.041 13.5107 443.841 12.7747C444.641 12.0227 445.689 11.6467 446.985 11.6467C448.265 11.6467 449.297 12.0227 450.081 12.7747C450.881 13.5107 451.281 14.5827 451.281 15.9907C451.281 17.3987 450.881 18.4707 450.081 19.2067C449.297 19.9427 448.265 20.3107 446.985 20.3107C445.689 20.3107 444.641 19.9427 443.841 19.2067C443.041 18.4707 442.641 17.3987 442.641 15.9907ZM460.425 11.8867L451.473 28.9507H446.385L455.337 11.8867H460.425ZM446.937 14.7427C446.393 14.7427 446.121 15.1587 446.121 15.9907C446.121 16.8067 446.393 17.2147 446.937 17.2147C447.225 17.2147 447.441 17.1107 447.585 16.9027C447.745 16.6947 447.825 16.3907 447.825 15.9907C447.825 15.5747 447.745 15.2627 447.585 15.0547C447.441 14.8467 447.225 14.7427 446.937 14.7427ZM455.529 24.8467C455.529 23.4387 455.929 22.3667 456.729 21.6307C457.529 20.8787 458.569 20.5027 459.849 20.5027C461.145 20.5027 462.185 20.8787 462.969 21.6307C463.753 22.3667 464.145 23.4387 464.145 24.8467C464.145 26.2547 463.753 27.3347 462.969 28.0867C462.185 28.8227 461.145 29.1907 459.849 29.1907C458.569 29.1907 457.529 28.8227 456.729 28.0867C455.929 27.3347 455.529 26.2547 455.529 24.8467ZM459.825 23.5987C459.265 23.5987 458.985 24.0147 458.985 24.8467C458.985 25.6787 459.265 26.0947 459.825 26.0947C460.097 26.0947 460.305 25.9907 460.449 25.7827C460.609 25.5747 460.689 25.2627 460.689 24.8467C460.689 24.4467 460.609 24.1427 460.449 23.9347C460.305 23.7107 460.097 23.5987 459.825 23.5987Z" fill="white"/>
<path d="M476.947 122.399V117.407H485.083V134.951H479.491V122.399H476.947ZM487.061 125.927C487.061 123.159 487.645 120.983 488.813 119.399C489.997 117.815 491.813 117.023 494.261 117.023C496.693 117.023 498.501 117.823 499.685 119.423C500.869 121.007 501.461 123.175 501.461 125.927C501.461 128.695 500.869 130.879 499.685 132.479C498.501 134.063 496.693 134.855 494.261 134.855C491.813 134.855 489.997 134.063 488.813 132.479C487.645 130.879 487.061 128.695 487.061 125.927ZM496.205 125.927C496.205 124.647 496.077 123.687 495.821 123.047C495.565 122.391 495.045 122.063 494.261 122.063C493.461 122.063 492.933 122.391 492.677 123.047C492.421 123.687 492.293 124.647 492.293 125.927C492.293 127.223 492.421 128.199 492.677 128.855C492.933 129.495 493.461 129.815 494.261 129.815C495.045 129.815 495.565 129.495 495.821 128.855C496.077 128.199 496.205 127.223 496.205 125.927ZM502.688 121.991C502.688 120.583 503.088 119.511 503.888 118.775C504.688 118.023 505.736 117.647 507.032 117.647C508.312 117.647 509.344 118.023 510.128 118.775C510.928 119.511 511.328 120.583 511.328 121.991C511.328 123.399 510.928 124.471 510.128 125.207C509.344 125.943 508.312 126.311 507.032 126.311C505.736 126.311 504.688 125.943 503.888 125.207C503.088 124.471 502.688 123.399 502.688 121.991ZM520.472 117.887L511.52 134.951H506.432L515.384 117.887H520.472ZM506.984 120.743C506.44 120.743 506.168 121.159 506.168 121.991C506.168 122.807 506.44 123.215 506.984 123.215C507.272 123.215 507.488 123.111 507.632 122.903C507.792 122.695 507.872 122.391 507.872 121.991C507.872 121.575 507.792 121.263 507.632 121.055C507.488 120.847 507.272 120.743 506.984 120.743ZM515.576 130.847C515.576 129.439 515.976 128.367 516.776 127.631C517.576 126.879 518.616 126.503 519.896 126.503C521.192 126.503 522.232 126.879 523.016 127.631C523.8 128.367 524.192 129.439 524.192 130.847C524.192 132.255 523.8 133.335 523.016 134.087C522.232 134.823 521.192 135.191 519.896 135.191C518.616 135.191 517.576 134.823 516.776 134.087C515.976 133.335 515.576 132.255 515.576 130.847ZM519.872 129.599C519.312 129.599 519.032 130.015 519.032 130.847C519.032 131.679 519.312 132.095 519.872 132.095C520.144 132.095 520.352 131.991 520.496 131.783C520.656 131.575 520.736 131.263 520.736 130.847C520.736 130.447 520.656 130.143 520.496 129.935C520.352 129.711 520.144 129.599 519.872 129.599Z" fill="white"/>
<path d="M385.336 449.272C387.48 447.672 389.176 446.224 390.424 444.928C391.672 443.616 392.296 442.392 392.296 441.256C392.296 440.872 392.208 440.576 392.032 440.368C391.872 440.16 391.656 440.056 391.384 440.056C391.064 440.056 390.808 440.224 390.616 440.56C390.44 440.88 390.376 441.376 390.424 442.048H385.264C385.312 440.56 385.632 439.336 386.224 438.376C386.832 437.416 387.616 436.712 388.576 436.264C389.536 435.816 390.592 435.592 391.744 435.592C393.792 435.592 395.288 436.088 396.232 437.08C397.192 438.056 397.672 439.312 397.672 440.848C397.672 442.464 397.152 443.984 396.112 445.408C395.088 446.816 393.8 448.008 392.248 448.984H397.744V453.28H385.336V449.272ZM412.274 440.656H405.314V442.672C405.618 442.4 406.01 442.184 406.49 442.024C406.986 441.864 407.538 441.784 408.146 441.784C409.234 441.784 410.154 442.04 410.906 442.552C411.658 443.064 412.218 443.752 412.586 444.616C412.954 445.464 413.138 446.408 413.138 447.448C413.138 449.368 412.594 450.864 411.506 451.936C410.434 452.992 408.954 453.52 407.066 453.52C405.69 453.52 404.498 453.28 403.49 452.8C402.498 452.32 401.738 451.656 401.21 450.808C400.698 449.96 400.458 448.992 400.49 447.904H405.674C405.674 448.16 405.762 448.4 405.938 448.624C406.114 448.848 406.402 448.96 406.802 448.96C407.202 448.96 407.498 448.816 407.69 448.528C407.882 448.24 407.978 447.848 407.978 447.352C407.978 446.888 407.866 446.536 407.642 446.296C407.434 446.056 407.13 445.936 406.73 445.936C406.394 445.936 406.138 446.016 405.962 446.176C405.786 446.336 405.698 446.52 405.698 446.728H400.514V435.976H412.274V440.656ZM414.606 440.56C414.606 439.152 415.006 438.08 415.806 437.344C416.606 436.592 417.654 436.216 418.95 436.216C420.23 436.216 421.262 436.592 422.046 437.344C422.846 438.08 423.246 439.152 423.246 440.56C423.246 441.968 422.846 443.04 422.046 443.776C421.262 444.512 420.23 444.88 418.95 444.88C417.654 444.88 416.606 444.512 415.806 443.776C415.006 443.04 414.606 441.968 414.606 440.56ZM432.39 436.456L423.438 453.52H418.35L427.302 436.456H432.39ZM418.902 439.312C418.358 439.312 418.086 439.728 418.086 440.56C418.086 441.376 418.358 441.784 418.902 441.784C419.19 441.784 419.406 441.68 419.55 441.472C419.71 441.264 419.79 440.96 419.79 440.56C419.79 440.144 419.71 439.832 419.55 439.624C419.406 439.416 419.19 439.312 418.902 439.312ZM427.494 449.416C427.494 448.008 427.894 446.936 428.694 446.2C429.494 445.448 430.534 445.072 431.814 445.072C433.11 445.072 434.15 445.448 434.934 446.2C435.718 446.936 436.11 448.008 436.11 449.416C436.11 450.824 435.718 451.904 434.934 452.656C434.15 453.392 433.11 453.76 431.814 453.76C430.534 453.76 429.494 453.392 428.694 452.656C427.894 451.904 427.494 450.824 427.494 449.416ZM431.79 448.168C431.23 448.168 430.95 448.584 430.95 449.416C430.95 450.248 431.23 450.664 431.79 450.664C432.062 450.664 432.27 450.56 432.414 450.352C432.574 450.144 432.654 449.832 432.654 449.416C432.654 449.016 432.574 448.712 432.414 448.504C432.27 448.28 432.062 448.168 431.79 448.168Z" fill="white"/>
<path d="M104.904 440.968V435.976H113.04V453.52H107.448V440.968H104.904ZM115.018 444.496C115.018 441.728 115.602 439.552 116.77 437.968C117.954 436.384 119.77 435.592 122.218 435.592C124.65 435.592 126.458 436.392 127.642 437.992C128.826 439.576 129.418 441.744 129.418 444.496C129.418 447.264 128.826 449.448 127.642 451.048C126.458 452.632 124.65 453.424 122.218 453.424C119.77 453.424 117.954 452.632 116.77 451.048C115.602 449.448 115.018 447.264 115.018 444.496ZM124.162 444.496C124.162 443.216 124.034 442.256 123.778 441.616C123.522 440.96 123.002 440.632 122.218 440.632C121.418 440.632 120.89 440.96 120.634 441.616C120.378 442.256 120.25 443.216 120.25 444.496C120.25 445.792 120.378 446.768 120.634 447.424C120.89 448.064 121.418 448.384 122.218 448.384C123.002 448.384 123.522 448.064 123.778 447.424C124.034 446.768 124.162 445.792 124.162 444.496ZM130.645 440.56C130.645 439.152 131.045 438.08 131.845 437.344C132.645 436.592 133.693 436.216 134.989 436.216C136.269 436.216 137.301 436.592 138.085 437.344C138.885 438.08 139.285 439.152 139.285 440.56C139.285 441.968 138.885 443.04 138.085 443.776C137.301 444.512 136.269 444.88 134.989 444.88C133.693 444.88 132.645 444.512 131.845 443.776C131.045 443.04 130.645 441.968 130.645 440.56ZM148.429 436.456L139.477 453.52H134.389L143.341 436.456H148.429ZM134.941 439.312C134.397 439.312 134.125 439.728 134.125 440.56C134.125 441.376 134.397 441.784 134.941 441.784C135.229 441.784 135.445 441.68 135.589 441.472C135.749 441.264 135.829 440.96 135.829 440.56C135.829 440.144 135.749 439.832 135.589 439.624C135.445 439.416 135.229 439.312 134.941 439.312ZM143.533 449.416C143.533 448.008 143.933 446.936 144.733 446.2C145.533 445.448 146.573 445.072 147.853 445.072C149.149 445.072 150.189 445.448 150.973 446.2C151.757 446.936 152.149 448.008 152.149 449.416C152.149 450.824 151.757 451.904 150.973 452.656C150.189 453.392 149.149 453.76 147.853 453.76C146.573 453.76 145.533 453.392 144.733 452.656C143.933 451.904 143.533 450.824 143.533 449.416ZM147.829 448.168C147.269 448.168 146.989 448.584 146.989 449.416C146.989 450.248 147.269 450.664 147.829 450.664C148.101 450.664 148.309 450.56 148.453 450.352C148.613 450.144 148.693 449.832 148.693 449.416C148.693 449.016 148.613 448.712 148.453 448.504C148.309 448.28 148.101 448.168 147.829 448.168Z" fill="white"/>
<path d="M460.238 259.545C460.238 363.992 375.566 448.663 271.119 448.663C166.671 448.663 82 363.992 82 259.545C82 155.097 166.671 70.4258 271.119 70.4258C375.566 70.4258 460.238 155.097 460.238 259.545ZM133.062 259.545C133.062 335.791 194.872 397.601 271.119 397.601C347.365 397.601 409.176 335.791 409.176 259.545C409.176 183.298 347.365 121.488 271.119 121.488C194.872 121.488 133.062 183.298 133.062 259.545Z" fill="#E154B1"/>
<path d="M460.237 259.07C460.299 283.906 455.469 308.51 446.023 331.479C436.576 354.447 422.698 375.331 405.181 392.936C387.664 410.541 366.851 424.524 343.929 434.085C321.008 443.647 296.429 448.6 271.593 448.663L271.465 397.601C289.595 397.555 307.538 393.939 324.271 386.959C341.003 379.979 356.197 369.772 368.984 356.92C381.772 344.068 391.903 328.824 398.799 312.057C405.695 295.289 409.221 277.328 409.175 259.198L460.237 259.07Z" fill="#488DFF"/>
<path d="M271.527 448.663C231.589 448.749 192.649 436.19 160.288 412.785L190.213 371.41C213.836 388.496 242.262 397.664 271.417 397.601L271.527 448.663Z" fill="#4E57FF"/>
<path d="M117.901 148.684C141.312 116.327 174.366 92.2129 212.325 79.7969L228.199 128.329C200.489 137.392 176.36 154.996 159.27 178.616L117.901 148.684Z" fill="#E77FFF"/>
<path d="M160.277 412.776C119.637 383.379 92.34 339.042 84.3904 289.518C76.4409 239.995 88.49 189.342 117.887 148.702L159.26 178.63C137.8 208.297 129.004 245.273 134.807 281.425C140.61 317.578 160.537 349.944 190.204 371.404L160.277 412.776Z" fill="#9D61FF"/>
<path d="M424.119 148.384C447.594 180.694 460.238 219.607 460.238 259.545H409.176C409.176 230.39 399.946 201.984 382.809 178.397L424.119 148.384Z" fill="#00C2FF"/>
<path d="M271.119 70.4258C300.964 70.4258 330.385 77.4892 356.977 91.0385C383.569 104.588 406.577 124.238 424.119 148.383L382.809 178.397C370.003 160.771 353.207 146.426 333.795 136.535C314.383 126.644 292.906 121.488 271.119 121.488V70.4258Z" fill="#72E8FF"/>
</svg>
